<mxfile host="app.diagrams.net" modified="2024-06-10T02:52:28.183Z" agent="Mozilla/5.0 (Macintosh; Intel Mac OS X 10_15_7) AppleWebKit/537.36 (KHTML, like Gecko) Chrome/125.0.0.0 Safari/537.36" etag="pgPLbcc_unH5ppu3aN47" version="24.5.2" type="github">
  <diagram name="Page-1" id="m4M4dx9sahxK60scS4Uc">
    <mxGraphModel dx="2506" dy="1815" grid="1" gridSize="10" guides="1" tooltips="1" connect="1" arrows="1" fold="1" page="1" pageScale="1" pageWidth="827" pageHeight="1169" math="0" shadow="0">
      <root>
        <mxCell id="0" />
        <mxCell id="1" parent="0" />
        <mxCell id="fi87069OedF_lEHAzqb7-1" value="Men&#39;s Preference Lists" style="shape=table;startSize=30;container=1;collapsible=0;childLayout=tableLayout;resizeLast=0;resizeLastRow=0;fontStyle=1;fontSize=12;" parent="1" vertex="1">
          <mxGeometry x="200" y="220.5" width="330" height="235.5" as="geometry" />
        </mxCell>
        <mxCell id="fi87069OedF_lEHAzqb7-2" value="" style="shape=tableRow;horizontal=0;startSize=30;swimlaneHead=0;swimlaneBody=0;strokeColor=inherit;top=0;left=0;bottom=0;right=0;collapsible=0;dropTarget=0;fillColor=none;points=[[0,0.5],[1,0.5]];portConstraint=eastwest;" parent="fi87069OedF_lEHAzqb7-1" vertex="1">
          <mxGeometry y="30" width="330" height="31" as="geometry" />
        </mxCell>
        <mxCell id="fi87069OedF_lEHAzqb7-3" value="Rank1" style="shape=partialRectangle;html=1;whiteSpace=wrap;connectable=0;strokeColor=inherit;overflow=hidden;fillColor=none;top=0;left=0;bottom=0;right=0;pointerEvents=1;" parent="fi87069OedF_lEHAzqb7-2" vertex="1">
          <mxGeometry x="30" width="60" height="31" as="geometry">
            <mxRectangle width="60" height="31" as="alternateBounds" />
          </mxGeometry>
        </mxCell>
        <mxCell id="fi87069OedF_lEHAzqb7-4" value="Rank2" style="shape=partialRectangle;html=1;whiteSpace=wrap;connectable=0;strokeColor=inherit;overflow=hidden;fillColor=none;top=0;left=0;bottom=0;right=0;pointerEvents=1;" parent="fi87069OedF_lEHAzqb7-2" vertex="1">
          <mxGeometry x="90" width="60" height="31" as="geometry">
            <mxRectangle width="60" height="31" as="alternateBounds" />
          </mxGeometry>
        </mxCell>
        <mxCell id="fi87069OedF_lEHAzqb7-5" value="Rank3" style="shape=partialRectangle;html=1;whiteSpace=wrap;connectable=0;strokeColor=inherit;overflow=hidden;fillColor=none;top=0;left=0;bottom=0;right=0;pointerEvents=1;strokeWidth=1;resizeWidth=1;resizeHeight=1;" parent="fi87069OedF_lEHAzqb7-2" vertex="1">
          <mxGeometry x="150" width="60" height="31" as="geometry">
            <mxRectangle width="60" height="31" as="alternateBounds" />
          </mxGeometry>
        </mxCell>
        <mxCell id="fi87069OedF_lEHAzqb7-61" value="Rank4" style="shape=partialRectangle;html=1;whiteSpace=wrap;connectable=0;strokeColor=inherit;overflow=hidden;fillColor=none;top=0;left=0;bottom=0;right=0;pointerEvents=1;strokeWidth=1;resizeWidth=1;resizeHeight=1;" parent="fi87069OedF_lEHAzqb7-2" vertex="1">
          <mxGeometry x="210" width="60" height="31" as="geometry">
            <mxRectangle width="60" height="31" as="alternateBounds" />
          </mxGeometry>
        </mxCell>
        <mxCell id="fi87069OedF_lEHAzqb7-67" value="Rank5" style="shape=partialRectangle;html=1;whiteSpace=wrap;connectable=0;strokeColor=inherit;overflow=hidden;fillColor=none;top=0;left=0;bottom=0;right=0;pointerEvents=1;strokeWidth=1;resizeWidth=1;resizeHeight=1;" parent="fi87069OedF_lEHAzqb7-2" vertex="1">
          <mxGeometry x="270" width="60" height="31" as="geometry">
            <mxRectangle width="60" height="31" as="alternateBounds" />
          </mxGeometry>
        </mxCell>
        <mxCell id="fi87069OedF_lEHAzqb7-6" value="M1" style="shape=tableRow;horizontal=0;startSize=30;swimlaneHead=0;swimlaneBody=0;strokeColor=inherit;top=0;left=0;bottom=0;right=0;collapsible=0;dropTarget=0;fillColor=none;points=[[0,0.5],[1,0.5]];portConstraint=eastwest;" parent="fi87069OedF_lEHAzqb7-1" vertex="1">
          <mxGeometry y="61" width="330" height="35" as="geometry" />
        </mxCell>
        <mxCell id="fi87069OedF_lEHAzqb7-7" value="W1" style="shape=partialRectangle;html=1;whiteSpace=wrap;connectable=0;overflow=hidden;top=0;left=0;bottom=0;right=0;pointerEvents=1;strokeColor=default;fillColor=none;" parent="fi87069OedF_lEHAzqb7-6" vertex="1">
          <mxGeometry x="30" width="60" height="35" as="geometry">
            <mxRectangle width="60" height="35" as="alternateBounds" />
          </mxGeometry>
        </mxCell>
        <mxCell id="fi87069OedF_lEHAzqb7-8" value="W2" style="shape=partialRectangle;html=1;whiteSpace=wrap;connectable=0;overflow=hidden;top=0;left=0;bottom=0;right=0;pointerEvents=1;fillColor=none;labelBackgroundColor=none;labelBorderColor=none;strokeColor=default;shadow=0;resizable=1;resizeWidth=0;metaEdit=0;backgroundOutline=0;" parent="fi87069OedF_lEHAzqb7-6" vertex="1">
          <mxGeometry x="90" width="60" height="35" as="geometry">
            <mxRectangle width="60" height="35" as="alternateBounds" />
          </mxGeometry>
        </mxCell>
        <mxCell id="fi87069OedF_lEHAzqb7-9" value="W3" style="shape=partialRectangle;html=1;whiteSpace=wrap;connectable=0;overflow=hidden;top=0;left=0;bottom=0;right=0;pointerEvents=1;fillColor=none;" parent="fi87069OedF_lEHAzqb7-6" vertex="1">
          <mxGeometry x="150" width="60" height="35" as="geometry">
            <mxRectangle width="60" height="35" as="alternateBounds" />
          </mxGeometry>
        </mxCell>
        <mxCell id="fi87069OedF_lEHAzqb7-62" value="W4" style="shape=partialRectangle;html=1;whiteSpace=wrap;connectable=0;overflow=hidden;top=0;left=0;bottom=0;right=0;pointerEvents=1;fillColor=none;" parent="fi87069OedF_lEHAzqb7-6" vertex="1">
          <mxGeometry x="210" width="60" height="35" as="geometry">
            <mxRectangle width="60" height="35" as="alternateBounds" />
          </mxGeometry>
        </mxCell>
        <mxCell id="fi87069OedF_lEHAzqb7-68" value="W5" style="shape=partialRectangle;html=1;whiteSpace=wrap;connectable=0;overflow=hidden;top=0;left=0;bottom=0;right=0;pointerEvents=1;fillColor=none;" parent="fi87069OedF_lEHAzqb7-6" vertex="1">
          <mxGeometry x="270" width="60" height="35" as="geometry">
            <mxRectangle width="60" height="35" as="alternateBounds" />
          </mxGeometry>
        </mxCell>
        <mxCell id="fi87069OedF_lEHAzqb7-10" value="M2" style="shape=tableRow;horizontal=0;startSize=30;swimlaneHead=0;swimlaneBody=0;strokeColor=inherit;top=0;left=0;bottom=0;right=0;collapsible=0;dropTarget=0;fillColor=none;points=[[0,0.5],[1,0.5]];portConstraint=eastwest;" parent="fi87069OedF_lEHAzqb7-1" vertex="1">
          <mxGeometry y="96" width="330" height="35" as="geometry" />
        </mxCell>
        <mxCell id="fi87069OedF_lEHAzqb7-11" value="W1" style="shape=partialRectangle;html=1;whiteSpace=wrap;connectable=0;overflow=hidden;top=0;left=0;bottom=0;right=0;pointerEvents=1;strokeOpacity=100;fillColor=none;" parent="fi87069OedF_lEHAzqb7-10" vertex="1">
          <mxGeometry x="30" width="60" height="35" as="geometry">
            <mxRectangle width="60" height="35" as="alternateBounds" />
          </mxGeometry>
        </mxCell>
        <mxCell id="fi87069OedF_lEHAzqb7-12" value="W2" style="shape=partialRectangle;html=1;whiteSpace=wrap;connectable=0;strokeColor=inherit;overflow=hidden;fillColor=none;top=0;left=0;bottom=0;right=0;pointerEvents=1;" parent="fi87069OedF_lEHAzqb7-10" vertex="1">
          <mxGeometry x="90" width="60" height="35" as="geometry">
            <mxRectangle width="60" height="35" as="alternateBounds" />
          </mxGeometry>
        </mxCell>
        <mxCell id="fi87069OedF_lEHAzqb7-13" value="W3" style="shape=partialRectangle;html=1;whiteSpace=wrap;connectable=0;strokeColor=inherit;overflow=hidden;fillColor=none;top=0;left=0;bottom=0;right=0;pointerEvents=1;" parent="fi87069OedF_lEHAzqb7-10" vertex="1">
          <mxGeometry x="150" width="60" height="35" as="geometry">
            <mxRectangle width="60" height="35" as="alternateBounds" />
          </mxGeometry>
        </mxCell>
        <mxCell id="fi87069OedF_lEHAzqb7-63" value="W4" style="shape=partialRectangle;html=1;whiteSpace=wrap;connectable=0;strokeColor=inherit;overflow=hidden;fillColor=none;top=0;left=0;bottom=0;right=0;pointerEvents=1;" parent="fi87069OedF_lEHAzqb7-10" vertex="1">
          <mxGeometry x="210" width="60" height="35" as="geometry">
            <mxRectangle width="60" height="35" as="alternateBounds" />
          </mxGeometry>
        </mxCell>
        <mxCell id="fi87069OedF_lEHAzqb7-69" value="W5" style="shape=partialRectangle;html=1;whiteSpace=wrap;connectable=0;strokeColor=inherit;overflow=hidden;fillColor=none;top=0;left=0;bottom=0;right=0;pointerEvents=1;" parent="fi87069OedF_lEHAzqb7-10" vertex="1">
          <mxGeometry x="270" width="60" height="35" as="geometry">
            <mxRectangle width="60" height="35" as="alternateBounds" />
          </mxGeometry>
        </mxCell>
        <mxCell id="fi87069OedF_lEHAzqb7-14" value="M3" style="shape=tableRow;horizontal=0;startSize=30;swimlaneHead=0;swimlaneBody=0;strokeColor=inherit;top=0;left=0;bottom=0;right=0;collapsible=0;dropTarget=0;fillColor=none;points=[[0,0.5],[1,0.5]];portConstraint=eastwest;" parent="fi87069OedF_lEHAzqb7-1" vertex="1">
          <mxGeometry y="131" width="330" height="35" as="geometry" />
        </mxCell>
        <mxCell id="fi87069OedF_lEHAzqb7-15" value="W1" style="shape=partialRectangle;html=1;whiteSpace=wrap;connectable=0;overflow=hidden;top=0;left=0;bottom=0;right=0;pointerEvents=1;fillColor=none;" parent="fi87069OedF_lEHAzqb7-14" vertex="1">
          <mxGeometry x="30" width="60" height="35" as="geometry">
            <mxRectangle width="60" height="35" as="alternateBounds" />
          </mxGeometry>
        </mxCell>
        <mxCell id="fi87069OedF_lEHAzqb7-16" value="W2" style="shape=partialRectangle;html=1;whiteSpace=wrap;connectable=0;overflow=hidden;top=0;left=0;bottom=0;right=0;pointerEvents=1;fillColor=none;" parent="fi87069OedF_lEHAzqb7-14" vertex="1">
          <mxGeometry x="90" width="60" height="35" as="geometry">
            <mxRectangle width="60" height="35" as="alternateBounds" />
          </mxGeometry>
        </mxCell>
        <mxCell id="fi87069OedF_lEHAzqb7-17" value="W3" style="shape=partialRectangle;html=1;whiteSpace=wrap;connectable=0;strokeColor=inherit;overflow=hidden;fillColor=none;top=0;left=0;bottom=0;right=0;pointerEvents=1;" parent="fi87069OedF_lEHAzqb7-14" vertex="1">
          <mxGeometry x="150" width="60" height="35" as="geometry">
            <mxRectangle width="60" height="35" as="alternateBounds" />
          </mxGeometry>
        </mxCell>
        <mxCell id="fi87069OedF_lEHAzqb7-64" value="W4" style="shape=partialRectangle;html=1;whiteSpace=wrap;connectable=0;strokeColor=inherit;overflow=hidden;fillColor=none;top=0;left=0;bottom=0;right=0;pointerEvents=1;" parent="fi87069OedF_lEHAzqb7-14" vertex="1">
          <mxGeometry x="210" width="60" height="35" as="geometry">
            <mxRectangle width="60" height="35" as="alternateBounds" />
          </mxGeometry>
        </mxCell>
        <mxCell id="fi87069OedF_lEHAzqb7-70" value="W5" style="shape=partialRectangle;html=1;whiteSpace=wrap;connectable=0;strokeColor=inherit;overflow=hidden;fillColor=none;top=0;left=0;bottom=0;right=0;pointerEvents=1;" parent="fi87069OedF_lEHAzqb7-14" vertex="1">
          <mxGeometry x="270" width="60" height="35" as="geometry">
            <mxRectangle width="60" height="35" as="alternateBounds" />
          </mxGeometry>
        </mxCell>
        <mxCell id="fi87069OedF_lEHAzqb7-57" value="M4" style="shape=tableRow;horizontal=0;startSize=30;swimlaneHead=0;swimlaneBody=0;strokeColor=inherit;top=0;left=0;bottom=0;right=0;collapsible=0;dropTarget=0;fillColor=none;points=[[0,0.5],[1,0.5]];portConstraint=eastwest;" parent="fi87069OedF_lEHAzqb7-1" vertex="1">
          <mxGeometry y="166" width="330" height="35" as="geometry" />
        </mxCell>
        <mxCell id="fi87069OedF_lEHAzqb7-58" value="W1" style="shape=partialRectangle;html=1;whiteSpace=wrap;connectable=0;overflow=hidden;top=0;left=0;bottom=0;right=0;pointerEvents=1;fillColor=none;" parent="fi87069OedF_lEHAzqb7-57" vertex="1">
          <mxGeometry x="30" width="60" height="35" as="geometry">
            <mxRectangle width="60" height="35" as="alternateBounds" />
          </mxGeometry>
        </mxCell>
        <mxCell id="fi87069OedF_lEHAzqb7-59" value="W2" style="shape=partialRectangle;html=1;whiteSpace=wrap;connectable=0;overflow=hidden;top=0;left=0;bottom=0;right=0;pointerEvents=1;fillColor=none;" parent="fi87069OedF_lEHAzqb7-57" vertex="1">
          <mxGeometry x="90" width="60" height="35" as="geometry">
            <mxRectangle width="60" height="35" as="alternateBounds" />
          </mxGeometry>
        </mxCell>
        <mxCell id="fi87069OedF_lEHAzqb7-60" value="W3" style="shape=partialRectangle;html=1;whiteSpace=wrap;connectable=0;strokeColor=inherit;overflow=hidden;fillColor=none;top=0;left=0;bottom=0;right=0;pointerEvents=1;" parent="fi87069OedF_lEHAzqb7-57" vertex="1">
          <mxGeometry x="150" width="60" height="35" as="geometry">
            <mxRectangle width="60" height="35" as="alternateBounds" />
          </mxGeometry>
        </mxCell>
        <mxCell id="fi87069OedF_lEHAzqb7-65" value="W4" style="shape=partialRectangle;html=1;whiteSpace=wrap;connectable=0;strokeColor=inherit;overflow=hidden;fillColor=none;top=0;left=0;bottom=0;right=0;pointerEvents=1;" parent="fi87069OedF_lEHAzqb7-57" vertex="1">
          <mxGeometry x="210" width="60" height="35" as="geometry">
            <mxRectangle width="60" height="35" as="alternateBounds" />
          </mxGeometry>
        </mxCell>
        <mxCell id="fi87069OedF_lEHAzqb7-71" value="W5" style="shape=partialRectangle;html=1;whiteSpace=wrap;connectable=0;strokeColor=inherit;overflow=hidden;fillColor=none;top=0;left=0;bottom=0;right=0;pointerEvents=1;" parent="fi87069OedF_lEHAzqb7-57" vertex="1">
          <mxGeometry x="270" width="60" height="35" as="geometry">
            <mxRectangle width="60" height="35" as="alternateBounds" />
          </mxGeometry>
        </mxCell>
        <mxCell id="fi87069OedF_lEHAzqb7-53" value="M5" style="shape=tableRow;horizontal=0;startSize=30;swimlaneHead=0;swimlaneBody=0;strokeColor=inherit;top=0;left=0;bottom=0;right=0;collapsible=0;dropTarget=0;fillColor=none;points=[[0,0.5],[1,0.5]];portConstraint=eastwest;" parent="fi87069OedF_lEHAzqb7-1" vertex="1">
          <mxGeometry y="201" width="330" height="35" as="geometry" />
        </mxCell>
        <mxCell id="fi87069OedF_lEHAzqb7-54" value="W1" style="shape=partialRectangle;html=1;whiteSpace=wrap;connectable=0;overflow=hidden;top=0;left=0;bottom=0;right=0;pointerEvents=1;fillColor=none;" parent="fi87069OedF_lEHAzqb7-53" vertex="1">
          <mxGeometry x="30" width="60" height="35" as="geometry">
            <mxRectangle width="60" height="35" as="alternateBounds" />
          </mxGeometry>
        </mxCell>
        <mxCell id="fi87069OedF_lEHAzqb7-55" value="W2" style="shape=partialRectangle;html=1;whiteSpace=wrap;connectable=0;overflow=hidden;top=0;left=0;bottom=0;right=0;pointerEvents=1;fillColor=none;" parent="fi87069OedF_lEHAzqb7-53" vertex="1">
          <mxGeometry x="90" width="60" height="35" as="geometry">
            <mxRectangle width="60" height="35" as="alternateBounds" />
          </mxGeometry>
        </mxCell>
        <mxCell id="fi87069OedF_lEHAzqb7-56" value="W3" style="shape=partialRectangle;html=1;whiteSpace=wrap;connectable=0;strokeColor=inherit;overflow=hidden;fillColor=none;top=0;left=0;bottom=0;right=0;pointerEvents=1;" parent="fi87069OedF_lEHAzqb7-53" vertex="1">
          <mxGeometry x="150" width="60" height="35" as="geometry">
            <mxRectangle width="60" height="35" as="alternateBounds" />
          </mxGeometry>
        </mxCell>
        <mxCell id="fi87069OedF_lEHAzqb7-66" value="W4" style="shape=partialRectangle;html=1;whiteSpace=wrap;connectable=0;strokeColor=inherit;overflow=hidden;fillColor=none;top=0;left=0;bottom=0;right=0;pointerEvents=1;" parent="fi87069OedF_lEHAzqb7-53" vertex="1">
          <mxGeometry x="210" width="60" height="35" as="geometry">
            <mxRectangle width="60" height="35" as="alternateBounds" />
          </mxGeometry>
        </mxCell>
        <mxCell id="fi87069OedF_lEHAzqb7-72" value="W5" style="shape=partialRectangle;html=1;whiteSpace=wrap;connectable=0;strokeColor=inherit;overflow=hidden;fillColor=none;top=0;left=0;bottom=0;right=0;pointerEvents=1;" parent="fi87069OedF_lEHAzqb7-53" vertex="1">
          <mxGeometry x="270" width="60" height="35" as="geometry">
            <mxRectangle width="60" height="35" as="alternateBounds" />
          </mxGeometry>
        </mxCell>
        <mxCell id="fi87069OedF_lEHAzqb7-18" value="1" style="ellipse;whiteSpace=wrap;html=1;aspect=fixed;strokeColor=#314354;align=center;verticalAlign=middle;fontFamily=Helvetica;fontSize=12;fillColor=#000000;fontColor=#ffffff;" parent="1" vertex="1">
          <mxGeometry x="230" y="282" width="15" height="15" as="geometry" />
        </mxCell>
        <mxCell id="fi87069OedF_lEHAzqb7-19" value="2" style="ellipse;whiteSpace=wrap;html=1;aspect=fixed;strokeColor=#314354;align=center;verticalAlign=middle;fontFamily=Helvetica;fontSize=12;fillColor=#000000;fontColor=#ffffff;" parent="1" vertex="1">
          <mxGeometry x="290" y="282" width="15" height="15" as="geometry" />
        </mxCell>
        <mxCell id="fi87069OedF_lEHAzqb7-115" value="1" style="ellipse;whiteSpace=wrap;html=1;aspect=fixed;strokeColor=#314354;align=center;verticalAlign=middle;fontFamily=Helvetica;fontSize=12;fillColor=#000000;fontColor=#ffffff;" parent="1" vertex="1">
          <mxGeometry x="230" y="317.5" width="15" height="15" as="geometry" />
        </mxCell>
        <mxCell id="fi87069OedF_lEHAzqb7-117" value="1" style="ellipse;whiteSpace=wrap;html=1;aspect=fixed;strokeColor=#314354;align=center;verticalAlign=middle;fontFamily=Helvetica;fontSize=12;fillColor=#000000;fontColor=#ffffff;" parent="1" vertex="1">
          <mxGeometry x="230" y="351.5" width="15" height="15" as="geometry" />
        </mxCell>
        <mxCell id="fi87069OedF_lEHAzqb7-118" value="1" style="ellipse;whiteSpace=wrap;html=1;aspect=fixed;strokeColor=#314354;align=center;verticalAlign=middle;fontFamily=Helvetica;fontSize=12;fillColor=#000000;fontColor=#ffffff;" parent="1" vertex="1">
          <mxGeometry x="230" y="387" width="15" height="15" as="geometry" />
        </mxCell>
        <mxCell id="fi87069OedF_lEHAzqb7-119" value="1" style="ellipse;whiteSpace=wrap;html=1;aspect=fixed;strokeColor=#314354;align=center;verticalAlign=middle;fontFamily=Helvetica;fontSize=12;fillColor=#000000;fontColor=#ffffff;" parent="1" vertex="1">
          <mxGeometry x="230" y="422" width="15" height="15" as="geometry" />
        </mxCell>
        <mxCell id="fi87069OedF_lEHAzqb7-121" value="2" style="ellipse;whiteSpace=wrap;html=1;aspect=fixed;strokeColor=#314354;align=center;verticalAlign=middle;fontFamily=Helvetica;fontSize=12;fillColor=#000000;fontColor=#ffffff;" parent="1" vertex="1">
          <mxGeometry x="290" y="351.5" width="15" height="15" as="geometry" />
        </mxCell>
        <mxCell id="fi87069OedF_lEHAzqb7-122" value="2" style="ellipse;whiteSpace=wrap;html=1;aspect=fixed;strokeColor=#314354;align=center;verticalAlign=middle;fontFamily=Helvetica;fontSize=12;fillColor=#000000;fontColor=#ffffff;" parent="1" vertex="1">
          <mxGeometry x="290" y="387" width="15" height="15" as="geometry" />
        </mxCell>
        <mxCell id="fi87069OedF_lEHAzqb7-123" value="2" style="ellipse;whiteSpace=wrap;html=1;aspect=fixed;strokeColor=#314354;align=center;verticalAlign=middle;fontFamily=Helvetica;fontSize=12;fillColor=#000000;fontColor=#ffffff;" parent="1" vertex="1">
          <mxGeometry x="290" y="422" width="15" height="15" as="geometry" />
        </mxCell>
        <mxCell id="fi87069OedF_lEHAzqb7-124" value="3" style="ellipse;whiteSpace=wrap;html=1;aspect=fixed;strokeColor=#314354;align=center;verticalAlign=middle;fontFamily=Helvetica;fontSize=12;fillColor=#000000;fontColor=#ffffff;" parent="1" vertex="1">
          <mxGeometry x="350.5" y="282" width="15" height="15" as="geometry" />
        </mxCell>
        <mxCell id="fi87069OedF_lEHAzqb7-125" value="3" style="ellipse;whiteSpace=wrap;html=1;aspect=fixed;strokeColor=#314354;align=center;verticalAlign=middle;fontFamily=Helvetica;fontSize=12;fillColor=#000000;fontColor=#ffffff;" parent="1" vertex="1">
          <mxGeometry x="350.5" y="351.5" width="15" height="15" as="geometry" />
        </mxCell>
        <mxCell id="fi87069OedF_lEHAzqb7-126" value="3" style="ellipse;whiteSpace=wrap;html=1;aspect=fixed;strokeColor=#314354;align=center;verticalAlign=middle;fontFamily=Helvetica;fontSize=12;fillColor=#000000;fontColor=#ffffff;" parent="1" vertex="1">
          <mxGeometry x="350.5" y="387" width="15" height="15" as="geometry" />
        </mxCell>
        <mxCell id="fi87069OedF_lEHAzqb7-127" value="4" style="ellipse;whiteSpace=wrap;html=1;aspect=fixed;strokeColor=#314354;align=center;verticalAlign=middle;fontFamily=Helvetica;fontSize=12;fillColor=#000000;fontColor=#ffffff;" parent="1" vertex="1">
          <mxGeometry x="411" y="351.5" width="15" height="15" as="geometry" />
        </mxCell>
        <mxCell id="fi87069OedF_lEHAzqb7-129" value="4" style="ellipse;whiteSpace=wrap;html=1;aspect=fixed;strokeColor=#314354;align=center;verticalAlign=middle;fontFamily=Helvetica;fontSize=12;fillColor=#000000;fontColor=#ffffff;" parent="1" vertex="1">
          <mxGeometry x="411" y="387" width="15" height="15" as="geometry" />
        </mxCell>
        <mxCell id="fi87069OedF_lEHAzqb7-130" value="5" style="ellipse;whiteSpace=wrap;html=1;aspect=fixed;strokeColor=#314354;align=center;verticalAlign=middle;fontFamily=Helvetica;fontSize=12;fillColor=#000000;fontColor=#ffffff;" parent="1" vertex="1">
          <mxGeometry x="470" y="351.5" width="15" height="15" as="geometry" />
        </mxCell>
        <mxCell id="avWDCVO7HLyo4PLT8k-2-3" value="1" style="ellipse;whiteSpace=wrap;html=1;aspect=fixed;strokeColor=#314354;align=center;verticalAlign=middle;fontFamily=Helvetica;fontSize=12;fillColor=#000000;fontColor=#ffffff;" parent="1" vertex="1">
          <mxGeometry x="1000" y="287.75" width="15" height="15" as="geometry" />
        </mxCell>
        <mxCell id="avWDCVO7HLyo4PLT8k-2-4" value="2" style="ellipse;whiteSpace=wrap;html=1;aspect=fixed;strokeColor=#314354;align=center;verticalAlign=middle;fontFamily=Helvetica;fontSize=12;fillColor=#000000;fontColor=#ffffff;" parent="1" vertex="1">
          <mxGeometry x="1000" y="317.75" width="15" height="15" as="geometry" />
        </mxCell>
        <mxCell id="avWDCVO7HLyo4PLT8k-2-5" value="3" style="ellipse;whiteSpace=wrap;html=1;aspect=fixed;strokeColor=#314354;align=center;verticalAlign=middle;fontFamily=Helvetica;fontSize=12;fillColor=#000000;fontColor=#ffffff;" parent="1" vertex="1">
          <mxGeometry x="1000" y="347.75" width="15" height="15" as="geometry" />
        </mxCell>
        <mxCell id="avWDCVO7HLyo4PLT8k-2-6" value="4" style="ellipse;whiteSpace=wrap;html=1;aspect=fixed;strokeColor=#314354;align=center;verticalAlign=middle;fontFamily=Helvetica;fontSize=12;fillColor=#000000;fontColor=#ffffff;" parent="1" vertex="1">
          <mxGeometry x="1000" y="377.75" width="15" height="15" as="geometry" />
        </mxCell>
        <mxCell id="avWDCVO7HLyo4PLT8k-2-7" value="5" style="ellipse;whiteSpace=wrap;html=1;aspect=fixed;strokeColor=#314354;align=center;verticalAlign=middle;fontFamily=Helvetica;fontSize=12;fillColor=#000000;fontColor=#ffffff;" parent="1" vertex="1">
          <mxGeometry x="1000" y="407.75" width="15" height="15" as="geometry" />
        </mxCell>
        <mxCell id="avWDCVO7HLyo4PLT8k-2-9" value="&lt;h1&gt;&lt;span style=&quot;font-size: 12px; font-weight: 400;&quot;&gt;: M1, M2, M3, M4, and M5 proposes to W1, then M2 gets accepted&lt;/span&gt;&lt;/h1&gt;" style="text;strokeColor=none;align=left;fillColor=none;html=1;verticalAlign=middle;whiteSpace=wrap;rounded=0;fontFamily=Helvetica;fontSize=12;fontColor=default;" parent="1" vertex="1">
          <mxGeometry x="1015" y="275.25" width="360" height="30" as="geometry" />
        </mxCell>
        <mxCell id="avWDCVO7HLyo4PLT8k-2-10" value="&lt;h1&gt;&lt;span style=&quot;font-size: 12px; font-weight: 400;&quot;&gt;: M1, M3, M4, and M5 propose to W2, then M5 gets accepted&lt;/span&gt;&lt;/h1&gt;" style="text;strokeColor=none;align=left;fillColor=none;html=1;verticalAlign=middle;whiteSpace=wrap;rounded=0;fontFamily=Helvetica;fontSize=12;fontColor=default;" parent="1" vertex="1">
          <mxGeometry x="1015" y="305.25" width="360" height="30" as="geometry" />
        </mxCell>
        <mxCell id="avWDCVO7HLyo4PLT8k-2-11" value="&lt;h1&gt;&lt;span style=&quot;font-size: 12px; font-weight: 400;&quot;&gt;: M1, M3, and M4 propose to W3, then M1 gets accepted&lt;/span&gt;&lt;/h1&gt;" style="text;strokeColor=none;align=left;fillColor=none;html=1;verticalAlign=middle;whiteSpace=wrap;rounded=0;fontFamily=Helvetica;fontSize=12;fontColor=default;" parent="1" vertex="1">
          <mxGeometry x="1015" y="335.25" width="360" height="30" as="geometry" />
        </mxCell>
        <mxCell id="avWDCVO7HLyo4PLT8k-2-12" value="&lt;h1&gt;&lt;span style=&quot;font-size: 12px; font-weight: 400;&quot;&gt;: M3 and M4 proposes to W4, then M4 gets accepted&lt;/span&gt;&lt;/h1&gt;" style="text;strokeColor=none;align=left;fillColor=none;html=1;verticalAlign=middle;whiteSpace=wrap;rounded=0;fontFamily=Helvetica;fontSize=12;fontColor=default;" parent="1" vertex="1">
          <mxGeometry x="1015" y="365.25" width="360" height="30" as="geometry" />
        </mxCell>
        <mxCell id="avWDCVO7HLyo4PLT8k-2-13" value="&lt;h1&gt;&lt;span style=&quot;font-size: 12px; font-weight: 400;&quot;&gt;: M3 proposes to W5, then M3 gets accepted&lt;/span&gt;&lt;/h1&gt;" style="text;strokeColor=none;align=left;fillColor=none;html=1;verticalAlign=middle;whiteSpace=wrap;rounded=0;fontFamily=Helvetica;fontSize=12;fontColor=default;" parent="1" vertex="1">
          <mxGeometry x="1015" y="395.25" width="360" height="30" as="geometry" />
        </mxCell>
        <mxCell id="Pt9WqsQkKKoT_3nrHR7m-2" value="" style="endArrow=none;html=1;rounded=0;strokeWidth=4;" edge="1" parent="1">
          <mxGeometry width="50" height="50" relative="1" as="geometry">
            <mxPoint x="-50" y="490" as="sourcePoint" />
            <mxPoint x="1330" y="490" as="targetPoint" />
          </mxGeometry>
        </mxCell>
        <mxCell id="Pt9WqsQkKKoT_3nrHR7m-191" value="Men&#39;s Preference Lists" style="shape=table;startSize=30;container=1;collapsible=0;childLayout=tableLayout;resizeLast=0;resizeLastRow=0;fontStyle=1;fontSize=12;" vertex="1" parent="1">
          <mxGeometry x="191" y="500" width="330" height="235.5" as="geometry" />
        </mxCell>
        <mxCell id="Pt9WqsQkKKoT_3nrHR7m-192" value="" style="shape=tableRow;horizontal=0;startSize=30;swimlaneHead=0;swimlaneBody=0;strokeColor=inherit;top=0;left=0;bottom=0;right=0;collapsible=0;dropTarget=0;fillColor=none;points=[[0,0.5],[1,0.5]];portConstraint=eastwest;" vertex="1" parent="Pt9WqsQkKKoT_3nrHR7m-191">
          <mxGeometry y="30" width="330" height="31" as="geometry" />
        </mxCell>
        <mxCell id="Pt9WqsQkKKoT_3nrHR7m-193" value="Rank1" style="shape=partialRectangle;html=1;whiteSpace=wrap;connectable=0;strokeColor=inherit;overflow=hidden;fillColor=none;top=0;left=0;bottom=0;right=0;pointerEvents=1;" vertex="1" parent="Pt9WqsQkKKoT_3nrHR7m-192">
          <mxGeometry x="30" width="60" height="31" as="geometry">
            <mxRectangle width="60" height="31" as="alternateBounds" />
          </mxGeometry>
        </mxCell>
        <mxCell id="Pt9WqsQkKKoT_3nrHR7m-194" value="Rank2" style="shape=partialRectangle;html=1;whiteSpace=wrap;connectable=0;strokeColor=inherit;overflow=hidden;fillColor=none;top=0;left=0;bottom=0;right=0;pointerEvents=1;" vertex="1" parent="Pt9WqsQkKKoT_3nrHR7m-192">
          <mxGeometry x="90" width="60" height="31" as="geometry">
            <mxRectangle width="60" height="31" as="alternateBounds" />
          </mxGeometry>
        </mxCell>
        <mxCell id="Pt9WqsQkKKoT_3nrHR7m-195" value="Rank3" style="shape=partialRectangle;html=1;whiteSpace=wrap;connectable=0;strokeColor=inherit;overflow=hidden;fillColor=none;top=0;left=0;bottom=0;right=0;pointerEvents=1;strokeWidth=1;resizeWidth=1;resizeHeight=1;" vertex="1" parent="Pt9WqsQkKKoT_3nrHR7m-192">
          <mxGeometry x="150" width="60" height="31" as="geometry">
            <mxRectangle width="60" height="31" as="alternateBounds" />
          </mxGeometry>
        </mxCell>
        <mxCell id="Pt9WqsQkKKoT_3nrHR7m-196" value="Rank4" style="shape=partialRectangle;html=1;whiteSpace=wrap;connectable=0;strokeColor=inherit;overflow=hidden;fillColor=none;top=0;left=0;bottom=0;right=0;pointerEvents=1;strokeWidth=1;resizeWidth=1;resizeHeight=1;" vertex="1" parent="Pt9WqsQkKKoT_3nrHR7m-192">
          <mxGeometry x="210" width="60" height="31" as="geometry">
            <mxRectangle width="60" height="31" as="alternateBounds" />
          </mxGeometry>
        </mxCell>
        <mxCell id="Pt9WqsQkKKoT_3nrHR7m-197" value="Rank5" style="shape=partialRectangle;html=1;whiteSpace=wrap;connectable=0;strokeColor=inherit;overflow=hidden;fillColor=none;top=0;left=0;bottom=0;right=0;pointerEvents=1;strokeWidth=1;resizeWidth=1;resizeHeight=1;" vertex="1" parent="Pt9WqsQkKKoT_3nrHR7m-192">
          <mxGeometry x="270" width="60" height="31" as="geometry">
            <mxRectangle width="60" height="31" as="alternateBounds" />
          </mxGeometry>
        </mxCell>
        <mxCell id="Pt9WqsQkKKoT_3nrHR7m-198" value="M1" style="shape=tableRow;horizontal=0;startSize=30;swimlaneHead=0;swimlaneBody=0;strokeColor=inherit;top=0;left=0;bottom=0;right=0;collapsible=0;dropTarget=0;fillColor=none;points=[[0,0.5],[1,0.5]];portConstraint=eastwest;" vertex="1" parent="Pt9WqsQkKKoT_3nrHR7m-191">
          <mxGeometry y="61" width="330" height="35" as="geometry" />
        </mxCell>
        <mxCell id="Pt9WqsQkKKoT_3nrHR7m-199" value="W1" style="shape=partialRectangle;html=1;whiteSpace=wrap;connectable=0;overflow=hidden;top=0;left=0;bottom=0;right=0;pointerEvents=1;strokeColor=default;fillColor=none;" vertex="1" parent="Pt9WqsQkKKoT_3nrHR7m-198">
          <mxGeometry x="30" width="60" height="35" as="geometry">
            <mxRectangle width="60" height="35" as="alternateBounds" />
          </mxGeometry>
        </mxCell>
        <mxCell id="Pt9WqsQkKKoT_3nrHR7m-200" value="W2" style="shape=partialRectangle;html=1;whiteSpace=wrap;connectable=0;overflow=hidden;top=0;left=0;bottom=0;right=0;pointerEvents=1;fillColor=none;labelBackgroundColor=none;labelBorderColor=none;strokeColor=default;shadow=0;resizable=1;resizeWidth=0;metaEdit=0;backgroundOutline=0;" vertex="1" parent="Pt9WqsQkKKoT_3nrHR7m-198">
          <mxGeometry x="90" width="60" height="35" as="geometry">
            <mxRectangle width="60" height="35" as="alternateBounds" />
          </mxGeometry>
        </mxCell>
        <mxCell id="Pt9WqsQkKKoT_3nrHR7m-201" value="W3" style="shape=partialRectangle;html=1;whiteSpace=wrap;connectable=0;overflow=hidden;top=0;left=0;bottom=0;right=0;pointerEvents=1;fillColor=none;" vertex="1" parent="Pt9WqsQkKKoT_3nrHR7m-198">
          <mxGeometry x="150" width="60" height="35" as="geometry">
            <mxRectangle width="60" height="35" as="alternateBounds" />
          </mxGeometry>
        </mxCell>
        <mxCell id="Pt9WqsQkKKoT_3nrHR7m-202" value="W4" style="shape=partialRectangle;html=1;whiteSpace=wrap;connectable=0;overflow=hidden;top=0;left=0;bottom=0;right=0;pointerEvents=1;fillColor=none;" vertex="1" parent="Pt9WqsQkKKoT_3nrHR7m-198">
          <mxGeometry x="210" width="60" height="35" as="geometry">
            <mxRectangle width="60" height="35" as="alternateBounds" />
          </mxGeometry>
        </mxCell>
        <mxCell id="Pt9WqsQkKKoT_3nrHR7m-203" value="W5" style="shape=partialRectangle;html=1;whiteSpace=wrap;connectable=0;overflow=hidden;top=0;left=0;bottom=0;right=0;pointerEvents=1;fillColor=none;" vertex="1" parent="Pt9WqsQkKKoT_3nrHR7m-198">
          <mxGeometry x="270" width="60" height="35" as="geometry">
            <mxRectangle width="60" height="35" as="alternateBounds" />
          </mxGeometry>
        </mxCell>
        <mxCell id="Pt9WqsQkKKoT_3nrHR7m-204" value="M2" style="shape=tableRow;horizontal=0;startSize=30;swimlaneHead=0;swimlaneBody=0;strokeColor=inherit;top=0;left=0;bottom=0;right=0;collapsible=0;dropTarget=0;fillColor=none;points=[[0,0.5],[1,0.5]];portConstraint=eastwest;" vertex="1" parent="Pt9WqsQkKKoT_3nrHR7m-191">
          <mxGeometry y="96" width="330" height="35" as="geometry" />
        </mxCell>
        <mxCell id="Pt9WqsQkKKoT_3nrHR7m-205" value="W2" style="shape=partialRectangle;html=1;whiteSpace=wrap;connectable=0;overflow=hidden;top=0;left=0;bottom=0;right=0;pointerEvents=1;strokeOpacity=100;fillColor=none;" vertex="1" parent="Pt9WqsQkKKoT_3nrHR7m-204">
          <mxGeometry x="30" width="60" height="35" as="geometry">
            <mxRectangle width="60" height="35" as="alternateBounds" />
          </mxGeometry>
        </mxCell>
        <mxCell id="Pt9WqsQkKKoT_3nrHR7m-206" value="W3" style="shape=partialRectangle;html=1;whiteSpace=wrap;connectable=0;strokeColor=inherit;overflow=hidden;fillColor=none;top=0;left=0;bottom=0;right=0;pointerEvents=1;" vertex="1" parent="Pt9WqsQkKKoT_3nrHR7m-204">
          <mxGeometry x="90" width="60" height="35" as="geometry">
            <mxRectangle width="60" height="35" as="alternateBounds" />
          </mxGeometry>
        </mxCell>
        <mxCell id="Pt9WqsQkKKoT_3nrHR7m-207" value="W4" style="shape=partialRectangle;html=1;whiteSpace=wrap;connectable=0;strokeColor=inherit;overflow=hidden;fillColor=none;top=0;left=0;bottom=0;right=0;pointerEvents=1;" vertex="1" parent="Pt9WqsQkKKoT_3nrHR7m-204">
          <mxGeometry x="150" width="60" height="35" as="geometry">
            <mxRectangle width="60" height="35" as="alternateBounds" />
          </mxGeometry>
        </mxCell>
        <mxCell id="Pt9WqsQkKKoT_3nrHR7m-208" value="W1" style="shape=partialRectangle;html=1;whiteSpace=wrap;connectable=0;strokeColor=inherit;overflow=hidden;fillColor=none;top=0;left=0;bottom=0;right=0;pointerEvents=1;" vertex="1" parent="Pt9WqsQkKKoT_3nrHR7m-204">
          <mxGeometry x="210" width="60" height="35" as="geometry">
            <mxRectangle width="60" height="35" as="alternateBounds" />
          </mxGeometry>
        </mxCell>
        <mxCell id="Pt9WqsQkKKoT_3nrHR7m-209" value="W5" style="shape=partialRectangle;html=1;whiteSpace=wrap;connectable=0;strokeColor=inherit;overflow=hidden;fillColor=none;top=0;left=0;bottom=0;right=0;pointerEvents=1;" vertex="1" parent="Pt9WqsQkKKoT_3nrHR7m-204">
          <mxGeometry x="270" width="60" height="35" as="geometry">
            <mxRectangle width="60" height="35" as="alternateBounds" />
          </mxGeometry>
        </mxCell>
        <mxCell id="Pt9WqsQkKKoT_3nrHR7m-210" value="M3" style="shape=tableRow;horizontal=0;startSize=30;swimlaneHead=0;swimlaneBody=0;strokeColor=inherit;top=0;left=0;bottom=0;right=0;collapsible=0;dropTarget=0;fillColor=none;points=[[0,0.5],[1,0.5]];portConstraint=eastwest;" vertex="1" parent="Pt9WqsQkKKoT_3nrHR7m-191">
          <mxGeometry y="131" width="330" height="35" as="geometry" />
        </mxCell>
        <mxCell id="Pt9WqsQkKKoT_3nrHR7m-211" value="W3" style="shape=partialRectangle;html=1;whiteSpace=wrap;connectable=0;overflow=hidden;top=0;left=0;bottom=0;right=0;pointerEvents=1;fillColor=none;" vertex="1" parent="Pt9WqsQkKKoT_3nrHR7m-210">
          <mxGeometry x="30" width="60" height="35" as="geometry">
            <mxRectangle width="60" height="35" as="alternateBounds" />
          </mxGeometry>
        </mxCell>
        <mxCell id="Pt9WqsQkKKoT_3nrHR7m-212" value="W1" style="shape=partialRectangle;html=1;whiteSpace=wrap;connectable=0;overflow=hidden;top=0;left=0;bottom=0;right=0;pointerEvents=1;fillColor=none;" vertex="1" parent="Pt9WqsQkKKoT_3nrHR7m-210">
          <mxGeometry x="90" width="60" height="35" as="geometry">
            <mxRectangle width="60" height="35" as="alternateBounds" />
          </mxGeometry>
        </mxCell>
        <mxCell id="Pt9WqsQkKKoT_3nrHR7m-213" value="W4" style="shape=partialRectangle;html=1;whiteSpace=wrap;connectable=0;strokeColor=inherit;overflow=hidden;fillColor=none;top=0;left=0;bottom=0;right=0;pointerEvents=1;" vertex="1" parent="Pt9WqsQkKKoT_3nrHR7m-210">
          <mxGeometry x="150" width="60" height="35" as="geometry">
            <mxRectangle width="60" height="35" as="alternateBounds" />
          </mxGeometry>
        </mxCell>
        <mxCell id="Pt9WqsQkKKoT_3nrHR7m-214" value="W2" style="shape=partialRectangle;html=1;whiteSpace=wrap;connectable=0;strokeColor=inherit;overflow=hidden;fillColor=none;top=0;left=0;bottom=0;right=0;pointerEvents=1;" vertex="1" parent="Pt9WqsQkKKoT_3nrHR7m-210">
          <mxGeometry x="210" width="60" height="35" as="geometry">
            <mxRectangle width="60" height="35" as="alternateBounds" />
          </mxGeometry>
        </mxCell>
        <mxCell id="Pt9WqsQkKKoT_3nrHR7m-215" value="W5" style="shape=partialRectangle;html=1;whiteSpace=wrap;connectable=0;strokeColor=inherit;overflow=hidden;fillColor=none;top=0;left=0;bottom=0;right=0;pointerEvents=1;" vertex="1" parent="Pt9WqsQkKKoT_3nrHR7m-210">
          <mxGeometry x="270" width="60" height="35" as="geometry">
            <mxRectangle width="60" height="35" as="alternateBounds" />
          </mxGeometry>
        </mxCell>
        <mxCell id="Pt9WqsQkKKoT_3nrHR7m-216" value="M4" style="shape=tableRow;horizontal=0;startSize=30;swimlaneHead=0;swimlaneBody=0;strokeColor=inherit;top=0;left=0;bottom=0;right=0;collapsible=0;dropTarget=0;fillColor=none;points=[[0,0.5],[1,0.5]];portConstraint=eastwest;" vertex="1" parent="Pt9WqsQkKKoT_3nrHR7m-191">
          <mxGeometry y="166" width="330" height="35" as="geometry" />
        </mxCell>
        <mxCell id="Pt9WqsQkKKoT_3nrHR7m-217" value="W4" style="shape=partialRectangle;html=1;whiteSpace=wrap;connectable=0;overflow=hidden;top=0;left=0;bottom=0;right=0;pointerEvents=1;fillColor=none;" vertex="1" parent="Pt9WqsQkKKoT_3nrHR7m-216">
          <mxGeometry x="30" width="60" height="35" as="geometry">
            <mxRectangle width="60" height="35" as="alternateBounds" />
          </mxGeometry>
        </mxCell>
        <mxCell id="Pt9WqsQkKKoT_3nrHR7m-218" value="W1" style="shape=partialRectangle;html=1;whiteSpace=wrap;connectable=0;overflow=hidden;top=0;left=0;bottom=0;right=0;pointerEvents=1;fillColor=none;" vertex="1" parent="Pt9WqsQkKKoT_3nrHR7m-216">
          <mxGeometry x="90" width="60" height="35" as="geometry">
            <mxRectangle width="60" height="35" as="alternateBounds" />
          </mxGeometry>
        </mxCell>
        <mxCell id="Pt9WqsQkKKoT_3nrHR7m-219" value="W2" style="shape=partialRectangle;html=1;whiteSpace=wrap;connectable=0;strokeColor=inherit;overflow=hidden;fillColor=none;top=0;left=0;bottom=0;right=0;pointerEvents=1;" vertex="1" parent="Pt9WqsQkKKoT_3nrHR7m-216">
          <mxGeometry x="150" width="60" height="35" as="geometry">
            <mxRectangle width="60" height="35" as="alternateBounds" />
          </mxGeometry>
        </mxCell>
        <mxCell id="Pt9WqsQkKKoT_3nrHR7m-220" value="W3" style="shape=partialRectangle;html=1;whiteSpace=wrap;connectable=0;strokeColor=inherit;overflow=hidden;fillColor=none;top=0;left=0;bottom=0;right=0;pointerEvents=1;" vertex="1" parent="Pt9WqsQkKKoT_3nrHR7m-216">
          <mxGeometry x="210" width="60" height="35" as="geometry">
            <mxRectangle width="60" height="35" as="alternateBounds" />
          </mxGeometry>
        </mxCell>
        <mxCell id="Pt9WqsQkKKoT_3nrHR7m-221" value="W5" style="shape=partialRectangle;html=1;whiteSpace=wrap;connectable=0;strokeColor=inherit;overflow=hidden;fillColor=none;top=0;left=0;bottom=0;right=0;pointerEvents=1;" vertex="1" parent="Pt9WqsQkKKoT_3nrHR7m-216">
          <mxGeometry x="270" width="60" height="35" as="geometry">
            <mxRectangle width="60" height="35" as="alternateBounds" />
          </mxGeometry>
        </mxCell>
        <mxCell id="Pt9WqsQkKKoT_3nrHR7m-222" value="M5" style="shape=tableRow;horizontal=0;startSize=30;swimlaneHead=0;swimlaneBody=0;strokeColor=inherit;top=0;left=0;bottom=0;right=0;collapsible=0;dropTarget=0;fillColor=none;points=[[0,0.5],[1,0.5]];portConstraint=eastwest;" vertex="1" parent="Pt9WqsQkKKoT_3nrHR7m-191">
          <mxGeometry y="201" width="330" height="35" as="geometry" />
        </mxCell>
        <mxCell id="Pt9WqsQkKKoT_3nrHR7m-223" value="W4" style="shape=partialRectangle;html=1;whiteSpace=wrap;connectable=0;overflow=hidden;top=0;left=0;bottom=0;right=0;pointerEvents=1;fillColor=none;" vertex="1" parent="Pt9WqsQkKKoT_3nrHR7m-222">
          <mxGeometry x="30" width="60" height="35" as="geometry">
            <mxRectangle width="60" height="35" as="alternateBounds" />
          </mxGeometry>
        </mxCell>
        <mxCell id="Pt9WqsQkKKoT_3nrHR7m-224" value="W1" style="shape=partialRectangle;html=1;whiteSpace=wrap;connectable=0;overflow=hidden;top=0;left=0;bottom=0;right=0;pointerEvents=1;fillColor=none;" vertex="1" parent="Pt9WqsQkKKoT_3nrHR7m-222">
          <mxGeometry x="90" width="60" height="35" as="geometry">
            <mxRectangle width="60" height="35" as="alternateBounds" />
          </mxGeometry>
        </mxCell>
        <mxCell id="Pt9WqsQkKKoT_3nrHR7m-225" value="W2" style="shape=partialRectangle;html=1;whiteSpace=wrap;connectable=0;strokeColor=inherit;overflow=hidden;fillColor=none;top=0;left=0;bottom=0;right=0;pointerEvents=1;" vertex="1" parent="Pt9WqsQkKKoT_3nrHR7m-222">
          <mxGeometry x="150" width="60" height="35" as="geometry">
            <mxRectangle width="60" height="35" as="alternateBounds" />
          </mxGeometry>
        </mxCell>
        <mxCell id="Pt9WqsQkKKoT_3nrHR7m-226" value="W3" style="shape=partialRectangle;html=1;whiteSpace=wrap;connectable=0;strokeColor=inherit;overflow=hidden;fillColor=none;top=0;left=0;bottom=0;right=0;pointerEvents=1;" vertex="1" parent="Pt9WqsQkKKoT_3nrHR7m-222">
          <mxGeometry x="210" width="60" height="35" as="geometry">
            <mxRectangle width="60" height="35" as="alternateBounds" />
          </mxGeometry>
        </mxCell>
        <mxCell id="Pt9WqsQkKKoT_3nrHR7m-227" value="W5" style="shape=partialRectangle;html=1;whiteSpace=wrap;connectable=0;strokeColor=inherit;overflow=hidden;fillColor=none;top=0;left=0;bottom=0;right=0;pointerEvents=1;" vertex="1" parent="Pt9WqsQkKKoT_3nrHR7m-222">
          <mxGeometry x="270" width="60" height="35" as="geometry">
            <mxRectangle width="60" height="35" as="alternateBounds" />
          </mxGeometry>
        </mxCell>
        <mxCell id="Pt9WqsQkKKoT_3nrHR7m-228" value="P" style="ellipse;whiteSpace=wrap;html=1;aspect=fixed;strokeColor=#314354;align=center;verticalAlign=middle;fontFamily=Helvetica;fontSize=12;fillColor=#000000;fontColor=#ffffff;" vertex="1" parent="1">
          <mxGeometry x="221" y="561" width="15" height="15" as="geometry" />
        </mxCell>
        <mxCell id="Pt9WqsQkKKoT_3nrHR7m-229" value="S" style="ellipse;whiteSpace=wrap;html=1;aspect=fixed;strokeColor=#314354;align=center;verticalAlign=middle;fontFamily=Helvetica;fontSize=12;fillColor=#999999;fontColor=#ffffff;" vertex="1" parent="1">
          <mxGeometry x="281" y="561" width="15" height="15" as="geometry" />
        </mxCell>
        <mxCell id="Pt9WqsQkKKoT_3nrHR7m-230" value="P" style="ellipse;whiteSpace=wrap;html=1;aspect=fixed;strokeColor=#314354;align=center;verticalAlign=middle;fontFamily=Helvetica;fontSize=12;fillColor=#000000;fontColor=#ffffff;" vertex="1" parent="1">
          <mxGeometry x="221" y="597" width="15" height="15" as="geometry" />
        </mxCell>
        <mxCell id="Pt9WqsQkKKoT_3nrHR7m-231" value="P" style="ellipse;whiteSpace=wrap;html=1;aspect=fixed;strokeColor=#314354;align=center;verticalAlign=middle;fontFamily=Helvetica;fontSize=12;fillColor=#000000;fontColor=#ffffff;" vertex="1" parent="1">
          <mxGeometry x="221" y="632" width="15" height="15" as="geometry" />
        </mxCell>
        <mxCell id="Pt9WqsQkKKoT_3nrHR7m-232" value="P" style="ellipse;whiteSpace=wrap;html=1;aspect=fixed;strokeColor=#314354;align=center;verticalAlign=middle;fontFamily=Helvetica;fontSize=12;fillColor=#000000;fontColor=#ffffff;" vertex="1" parent="1">
          <mxGeometry x="221" y="667" width="15" height="15" as="geometry" />
        </mxCell>
        <mxCell id="Pt9WqsQkKKoT_3nrHR7m-233" value="P" style="ellipse;whiteSpace=wrap;html=1;aspect=fixed;strokeColor=#314354;align=center;verticalAlign=middle;fontFamily=Helvetica;fontSize=12;fillColor=#000000;fontColor=#ffffff;" vertex="1" parent="1">
          <mxGeometry x="221" y="702" width="15" height="15" as="geometry" />
        </mxCell>
        <mxCell id="Pt9WqsQkKKoT_3nrHR7m-234" value="S" style="ellipse;whiteSpace=wrap;html=1;aspect=fixed;strokeColor=#314354;align=center;verticalAlign=middle;fontFamily=Helvetica;fontSize=12;fillColor=#999999;fontColor=#ffffff;" vertex="1" parent="1">
          <mxGeometry x="281" y="632" width="15" height="15" as="geometry" />
        </mxCell>
        <mxCell id="Pt9WqsQkKKoT_3nrHR7m-235" value="S" style="ellipse;whiteSpace=wrap;html=1;aspect=fixed;strokeColor=#314354;align=center;verticalAlign=middle;fontFamily=Helvetica;fontSize=12;fillColor=#999999;fontColor=#ffffff;" vertex="1" parent="1">
          <mxGeometry x="281" y="667" width="15" height="15" as="geometry" />
        </mxCell>
        <mxCell id="Pt9WqsQkKKoT_3nrHR7m-236" value="S" style="ellipse;whiteSpace=wrap;html=1;aspect=fixed;strokeColor=#314354;align=center;verticalAlign=middle;fontFamily=Helvetica;fontSize=12;fillColor=#999999;fontColor=#ffffff;" vertex="1" parent="1">
          <mxGeometry x="281" y="702" width="15" height="15" as="geometry" />
        </mxCell>
        <mxCell id="Pt9WqsQkKKoT_3nrHR7m-237" value="S" style="ellipse;whiteSpace=wrap;html=1;aspect=fixed;strokeColor=#314354;align=center;verticalAlign=middle;fontFamily=Helvetica;fontSize=12;fillColor=#999999;fontColor=#ffffff;" vertex="1" parent="1">
          <mxGeometry x="341" y="561" width="15" height="15" as="geometry" />
        </mxCell>
        <mxCell id="Pt9WqsQkKKoT_3nrHR7m-238" value="S" style="ellipse;whiteSpace=wrap;html=1;aspect=fixed;strokeColor=#314354;align=center;verticalAlign=middle;fontFamily=Helvetica;fontSize=12;fillColor=#999999;fontColor=#ffffff;" vertex="1" parent="1">
          <mxGeometry x="341" y="632" width="15" height="15" as="geometry" />
        </mxCell>
        <mxCell id="Pt9WqsQkKKoT_3nrHR7m-239" value="S" style="ellipse;whiteSpace=wrap;html=1;aspect=fixed;strokeColor=#314354;align=center;verticalAlign=middle;fontFamily=Helvetica;fontSize=12;fillColor=#999999;fontColor=#ffffff;" vertex="1" parent="1">
          <mxGeometry x="341" y="667" width="15" height="15" as="geometry" />
        </mxCell>
        <mxCell id="Pt9WqsQkKKoT_3nrHR7m-240" value="S" style="ellipse;whiteSpace=wrap;html=1;aspect=fixed;strokeColor=#314354;align=center;verticalAlign=middle;fontFamily=Helvetica;fontSize=12;fillColor=#999999;fontColor=#ffffff;" vertex="1" parent="1">
          <mxGeometry x="401" y="632" width="15" height="15" as="geometry" />
        </mxCell>
        <mxCell id="Pt9WqsQkKKoT_3nrHR7m-241" value="S" style="ellipse;whiteSpace=wrap;html=1;aspect=fixed;strokeColor=#314354;align=center;verticalAlign=middle;fontFamily=Helvetica;fontSize=12;fillColor=#999999;fontColor=#ffffff;" vertex="1" parent="1">
          <mxGeometry x="401" y="667" width="15" height="15" as="geometry" />
        </mxCell>
        <mxCell id="Pt9WqsQkKKoT_3nrHR7m-242" value="S" style="ellipse;whiteSpace=wrap;html=1;aspect=fixed;strokeColor=#314354;align=center;verticalAlign=middle;fontFamily=Helvetica;fontSize=12;fillColor=#999999;fontColor=#ffffff;" vertex="1" parent="1">
          <mxGeometry x="341" y="702" width="15" height="15" as="geometry" />
        </mxCell>
        <mxCell id="Pt9WqsQkKKoT_3nrHR7m-243" value="S" style="ellipse;whiteSpace=wrap;html=1;aspect=fixed;strokeColor=#314354;align=center;verticalAlign=middle;fontFamily=Helvetica;fontSize=12;fillColor=#999999;fontColor=#ffffff;" vertex="1" parent="1">
          <mxGeometry x="281" y="597" width="15" height="15" as="geometry" />
        </mxCell>
        <mxCell id="Pt9WqsQkKKoT_3nrHR7m-244" value="S" style="ellipse;whiteSpace=wrap;html=1;aspect=fixed;strokeColor=#314354;align=center;verticalAlign=middle;fontFamily=Helvetica;fontSize=12;fillColor=#999999;fontColor=#ffffff;" vertex="1" parent="1">
          <mxGeometry x="341" y="597" width="15" height="15" as="geometry" />
        </mxCell>
        <mxCell id="Pt9WqsQkKKoT_3nrHR7m-245" value="S" style="ellipse;whiteSpace=wrap;html=1;aspect=fixed;strokeColor=#314354;align=center;verticalAlign=middle;fontFamily=Helvetica;fontSize=12;fillColor=#999999;fontColor=#ffffff;" vertex="1" parent="1">
          <mxGeometry x="401" y="597" width="15" height="15" as="geometry" />
        </mxCell>
        <mxCell id="Pt9WqsQkKKoT_3nrHR7m-246" value="S" style="ellipse;whiteSpace=wrap;html=1;aspect=fixed;strokeColor=#314354;align=center;verticalAlign=middle;fontFamily=Helvetica;fontSize=12;fillColor=#999999;fontColor=#ffffff;" vertex="1" parent="1">
          <mxGeometry x="401" y="561" width="15" height="15" as="geometry" />
        </mxCell>
        <mxCell id="Pt9WqsQkKKoT_3nrHR7m-247" value="S" style="ellipse;whiteSpace=wrap;html=1;aspect=fixed;strokeColor=#314354;align=center;verticalAlign=middle;fontFamily=Helvetica;fontSize=12;fillColor=#999999;fontColor=#ffffff;" vertex="1" parent="1">
          <mxGeometry x="401" y="702" width="15" height="15" as="geometry" />
        </mxCell>
        <mxCell id="Pt9WqsQkKKoT_3nrHR7m-248" value="S" style="ellipse;whiteSpace=wrap;html=1;aspect=fixed;strokeColor=#314354;align=center;verticalAlign=middle;fontFamily=Helvetica;fontSize=12;fillColor=#999999;fontColor=#ffffff;" vertex="1" parent="1">
          <mxGeometry x="461" y="702" width="15" height="15" as="geometry" />
        </mxCell>
        <mxCell id="Pt9WqsQkKKoT_3nrHR7m-254" value="Women&#39;s Preference Lists" style="shape=table;startSize=30;container=1;collapsible=0;childLayout=tableLayout;resizeLast=0;resizeLastRow=0;fontStyle=1;fontSize=12;" vertex="1" parent="1">
          <mxGeometry x="601" y="500.5" width="330" height="235.5" as="geometry" />
        </mxCell>
        <mxCell id="Pt9WqsQkKKoT_3nrHR7m-255" value="" style="shape=tableRow;horizontal=0;startSize=30;swimlaneHead=0;swimlaneBody=0;strokeColor=inherit;top=0;left=0;bottom=0;right=0;collapsible=0;dropTarget=0;fillColor=none;points=[[0,0.5],[1,0.5]];portConstraint=eastwest;" vertex="1" parent="Pt9WqsQkKKoT_3nrHR7m-254">
          <mxGeometry y="30" width="330" height="31" as="geometry" />
        </mxCell>
        <mxCell id="Pt9WqsQkKKoT_3nrHR7m-256" value="Rank1" style="shape=partialRectangle;html=1;whiteSpace=wrap;connectable=0;strokeColor=inherit;overflow=hidden;fillColor=none;top=0;left=0;bottom=0;right=0;pointerEvents=1;" vertex="1" parent="Pt9WqsQkKKoT_3nrHR7m-255">
          <mxGeometry x="30" width="60" height="31" as="geometry">
            <mxRectangle width="60" height="31" as="alternateBounds" />
          </mxGeometry>
        </mxCell>
        <mxCell id="Pt9WqsQkKKoT_3nrHR7m-257" value="Rank2" style="shape=partialRectangle;html=1;whiteSpace=wrap;connectable=0;strokeColor=inherit;overflow=hidden;fillColor=none;top=0;left=0;bottom=0;right=0;pointerEvents=1;" vertex="1" parent="Pt9WqsQkKKoT_3nrHR7m-255">
          <mxGeometry x="90" width="60" height="31" as="geometry">
            <mxRectangle width="60" height="31" as="alternateBounds" />
          </mxGeometry>
        </mxCell>
        <mxCell id="Pt9WqsQkKKoT_3nrHR7m-258" value="Rank3" style="shape=partialRectangle;html=1;whiteSpace=wrap;connectable=0;strokeColor=inherit;overflow=hidden;fillColor=none;top=0;left=0;bottom=0;right=0;pointerEvents=1;strokeWidth=1;resizeWidth=1;resizeHeight=1;" vertex="1" parent="Pt9WqsQkKKoT_3nrHR7m-255">
          <mxGeometry x="150" width="60" height="31" as="geometry">
            <mxRectangle width="60" height="31" as="alternateBounds" />
          </mxGeometry>
        </mxCell>
        <mxCell id="Pt9WqsQkKKoT_3nrHR7m-259" value="Rank4" style="shape=partialRectangle;html=1;whiteSpace=wrap;connectable=0;strokeColor=inherit;overflow=hidden;fillColor=none;top=0;left=0;bottom=0;right=0;pointerEvents=1;strokeWidth=1;resizeWidth=1;resizeHeight=1;" vertex="1" parent="Pt9WqsQkKKoT_3nrHR7m-255">
          <mxGeometry x="210" width="60" height="31" as="geometry">
            <mxRectangle width="60" height="31" as="alternateBounds" />
          </mxGeometry>
        </mxCell>
        <mxCell id="Pt9WqsQkKKoT_3nrHR7m-260" value="Rank5" style="shape=partialRectangle;html=1;whiteSpace=wrap;connectable=0;strokeColor=inherit;overflow=hidden;fillColor=none;top=0;left=0;bottom=0;right=0;pointerEvents=1;strokeWidth=1;resizeWidth=1;resizeHeight=1;" vertex="1" parent="Pt9WqsQkKKoT_3nrHR7m-255">
          <mxGeometry x="270" width="60" height="31" as="geometry">
            <mxRectangle width="60" height="31" as="alternateBounds" />
          </mxGeometry>
        </mxCell>
        <mxCell id="Pt9WqsQkKKoT_3nrHR7m-261" value="W1" style="shape=tableRow;horizontal=0;startSize=30;swimlaneHead=0;swimlaneBody=0;strokeColor=inherit;top=0;left=0;bottom=0;right=0;collapsible=0;dropTarget=0;fillColor=none;points=[[0,0.5],[1,0.5]];portConstraint=eastwest;" vertex="1" parent="Pt9WqsQkKKoT_3nrHR7m-254">
          <mxGeometry y="61" width="330" height="35" as="geometry" />
        </mxCell>
        <mxCell id="Pt9WqsQkKKoT_3nrHR7m-262" value="M2" style="shape=partialRectangle;html=1;whiteSpace=wrap;connectable=0;overflow=hidden;top=0;left=0;bottom=0;right=0;pointerEvents=1;strokeColor=default;fillColor=none;" vertex="1" parent="Pt9WqsQkKKoT_3nrHR7m-261">
          <mxGeometry x="30" width="60" height="35" as="geometry">
            <mxRectangle width="60" height="35" as="alternateBounds" />
          </mxGeometry>
        </mxCell>
        <mxCell id="Pt9WqsQkKKoT_3nrHR7m-263" value="M1" style="shape=partialRectangle;html=1;whiteSpace=wrap;connectable=0;overflow=hidden;top=0;left=0;bottom=0;right=0;pointerEvents=1;fillColor=none;labelBackgroundColor=none;labelBorderColor=none;strokeColor=default;shadow=0;resizable=1;resizeWidth=0;metaEdit=0;backgroundOutline=0;" vertex="1" parent="Pt9WqsQkKKoT_3nrHR7m-261">
          <mxGeometry x="90" width="60" height="35" as="geometry">
            <mxRectangle width="60" height="35" as="alternateBounds" />
          </mxGeometry>
        </mxCell>
        <mxCell id="Pt9WqsQkKKoT_3nrHR7m-264" value="M3" style="shape=partialRectangle;html=1;whiteSpace=wrap;connectable=0;overflow=hidden;top=0;left=0;bottom=0;right=0;pointerEvents=1;fillColor=none;" vertex="1" parent="Pt9WqsQkKKoT_3nrHR7m-261">
          <mxGeometry x="150" width="60" height="35" as="geometry">
            <mxRectangle width="60" height="35" as="alternateBounds" />
          </mxGeometry>
        </mxCell>
        <mxCell id="Pt9WqsQkKKoT_3nrHR7m-265" value="M4" style="shape=partialRectangle;html=1;whiteSpace=wrap;connectable=0;overflow=hidden;top=0;left=0;bottom=0;right=0;pointerEvents=1;fillColor=none;" vertex="1" parent="Pt9WqsQkKKoT_3nrHR7m-261">
          <mxGeometry x="210" width="60" height="35" as="geometry">
            <mxRectangle width="60" height="35" as="alternateBounds" />
          </mxGeometry>
        </mxCell>
        <mxCell id="Pt9WqsQkKKoT_3nrHR7m-266" value="M5" style="shape=partialRectangle;html=1;whiteSpace=wrap;connectable=0;overflow=hidden;top=0;left=0;bottom=0;right=0;pointerEvents=1;fillColor=none;" vertex="1" parent="Pt9WqsQkKKoT_3nrHR7m-261">
          <mxGeometry x="270" width="60" height="35" as="geometry">
            <mxRectangle width="60" height="35" as="alternateBounds" />
          </mxGeometry>
        </mxCell>
        <mxCell id="Pt9WqsQkKKoT_3nrHR7m-267" value="W2" style="shape=tableRow;horizontal=0;startSize=30;swimlaneHead=0;swimlaneBody=0;strokeColor=inherit;top=0;left=0;bottom=0;right=0;collapsible=0;dropTarget=0;fillColor=none;points=[[0,0.5],[1,0.5]];portConstraint=eastwest;" vertex="1" parent="Pt9WqsQkKKoT_3nrHR7m-254">
          <mxGeometry y="96" width="330" height="35" as="geometry" />
        </mxCell>
        <mxCell id="Pt9WqsQkKKoT_3nrHR7m-268" value="M3" style="shape=partialRectangle;html=1;whiteSpace=wrap;connectable=0;overflow=hidden;top=0;left=0;bottom=0;right=0;pointerEvents=1;strokeOpacity=100;fillColor=none;" vertex="1" parent="Pt9WqsQkKKoT_3nrHR7m-267">
          <mxGeometry x="30" width="60" height="35" as="geometry">
            <mxRectangle width="60" height="35" as="alternateBounds" />
          </mxGeometry>
        </mxCell>
        <mxCell id="Pt9WqsQkKKoT_3nrHR7m-269" value="M2" style="shape=partialRectangle;html=1;whiteSpace=wrap;connectable=0;strokeColor=inherit;overflow=hidden;fillColor=none;top=0;left=0;bottom=0;right=0;pointerEvents=1;" vertex="1" parent="Pt9WqsQkKKoT_3nrHR7m-267">
          <mxGeometry x="90" width="60" height="35" as="geometry">
            <mxRectangle width="60" height="35" as="alternateBounds" />
          </mxGeometry>
        </mxCell>
        <mxCell id="Pt9WqsQkKKoT_3nrHR7m-270" value="M1" style="shape=partialRectangle;html=1;whiteSpace=wrap;connectable=0;strokeColor=inherit;overflow=hidden;fillColor=none;top=0;left=0;bottom=0;right=0;pointerEvents=1;" vertex="1" parent="Pt9WqsQkKKoT_3nrHR7m-267">
          <mxGeometry x="150" width="60" height="35" as="geometry">
            <mxRectangle width="60" height="35" as="alternateBounds" />
          </mxGeometry>
        </mxCell>
        <mxCell id="Pt9WqsQkKKoT_3nrHR7m-271" value="M4" style="shape=partialRectangle;html=1;whiteSpace=wrap;connectable=0;strokeColor=inherit;overflow=hidden;fillColor=none;top=0;left=0;bottom=0;right=0;pointerEvents=1;" vertex="1" parent="Pt9WqsQkKKoT_3nrHR7m-267">
          <mxGeometry x="210" width="60" height="35" as="geometry">
            <mxRectangle width="60" height="35" as="alternateBounds" />
          </mxGeometry>
        </mxCell>
        <mxCell id="Pt9WqsQkKKoT_3nrHR7m-272" value="M5" style="shape=partialRectangle;html=1;whiteSpace=wrap;connectable=0;strokeColor=inherit;overflow=hidden;fillColor=none;top=0;left=0;bottom=0;right=0;pointerEvents=1;" vertex="1" parent="Pt9WqsQkKKoT_3nrHR7m-267">
          <mxGeometry x="270" width="60" height="35" as="geometry">
            <mxRectangle width="60" height="35" as="alternateBounds" />
          </mxGeometry>
        </mxCell>
        <mxCell id="Pt9WqsQkKKoT_3nrHR7m-273" value="W3" style="shape=tableRow;horizontal=0;startSize=30;swimlaneHead=0;swimlaneBody=0;strokeColor=inherit;top=0;left=0;bottom=0;right=0;collapsible=0;dropTarget=0;fillColor=none;points=[[0,0.5],[1,0.5]];portConstraint=eastwest;" vertex="1" parent="Pt9WqsQkKKoT_3nrHR7m-254">
          <mxGeometry y="131" width="330" height="35" as="geometry" />
        </mxCell>
        <mxCell id="Pt9WqsQkKKoT_3nrHR7m-274" value="M4" style="shape=partialRectangle;html=1;whiteSpace=wrap;connectable=0;overflow=hidden;top=0;left=0;bottom=0;right=0;pointerEvents=1;fillColor=none;" vertex="1" parent="Pt9WqsQkKKoT_3nrHR7m-273">
          <mxGeometry x="30" width="60" height="35" as="geometry">
            <mxRectangle width="60" height="35" as="alternateBounds" />
          </mxGeometry>
        </mxCell>
        <mxCell id="Pt9WqsQkKKoT_3nrHR7m-275" value="M3" style="shape=partialRectangle;html=1;whiteSpace=wrap;connectable=0;overflow=hidden;top=0;left=0;bottom=0;right=0;pointerEvents=1;fillColor=none;" vertex="1" parent="Pt9WqsQkKKoT_3nrHR7m-273">
          <mxGeometry x="90" width="60" height="35" as="geometry">
            <mxRectangle width="60" height="35" as="alternateBounds" />
          </mxGeometry>
        </mxCell>
        <mxCell id="Pt9WqsQkKKoT_3nrHR7m-276" value="M1" style="shape=partialRectangle;html=1;whiteSpace=wrap;connectable=0;strokeColor=inherit;overflow=hidden;fillColor=none;top=0;left=0;bottom=0;right=0;pointerEvents=1;" vertex="1" parent="Pt9WqsQkKKoT_3nrHR7m-273">
          <mxGeometry x="150" width="60" height="35" as="geometry">
            <mxRectangle width="60" height="35" as="alternateBounds" />
          </mxGeometry>
        </mxCell>
        <mxCell id="Pt9WqsQkKKoT_3nrHR7m-277" value="M2" style="shape=partialRectangle;html=1;whiteSpace=wrap;connectable=0;strokeColor=inherit;overflow=hidden;fillColor=none;top=0;left=0;bottom=0;right=0;pointerEvents=1;" vertex="1" parent="Pt9WqsQkKKoT_3nrHR7m-273">
          <mxGeometry x="210" width="60" height="35" as="geometry">
            <mxRectangle width="60" height="35" as="alternateBounds" />
          </mxGeometry>
        </mxCell>
        <mxCell id="Pt9WqsQkKKoT_3nrHR7m-278" value="M5" style="shape=partialRectangle;html=1;whiteSpace=wrap;connectable=0;strokeColor=inherit;overflow=hidden;fillColor=none;top=0;left=0;bottom=0;right=0;pointerEvents=1;" vertex="1" parent="Pt9WqsQkKKoT_3nrHR7m-273">
          <mxGeometry x="270" width="60" height="35" as="geometry">
            <mxRectangle width="60" height="35" as="alternateBounds" />
          </mxGeometry>
        </mxCell>
        <mxCell id="Pt9WqsQkKKoT_3nrHR7m-279" value="W4" style="shape=tableRow;horizontal=0;startSize=30;swimlaneHead=0;swimlaneBody=0;strokeColor=inherit;top=0;left=0;bottom=0;right=0;collapsible=0;dropTarget=0;fillColor=none;points=[[0,0.5],[1,0.5]];portConstraint=eastwest;" vertex="1" parent="Pt9WqsQkKKoT_3nrHR7m-254">
          <mxGeometry y="166" width="330" height="35" as="geometry" />
        </mxCell>
        <mxCell id="Pt9WqsQkKKoT_3nrHR7m-280" value="M1" style="shape=partialRectangle;html=1;whiteSpace=wrap;connectable=0;overflow=hidden;top=0;left=0;bottom=0;right=0;pointerEvents=1;fillColor=none;" vertex="1" parent="Pt9WqsQkKKoT_3nrHR7m-279">
          <mxGeometry x="30" width="60" height="35" as="geometry">
            <mxRectangle width="60" height="35" as="alternateBounds" />
          </mxGeometry>
        </mxCell>
        <mxCell id="Pt9WqsQkKKoT_3nrHR7m-281" value="M5" style="shape=partialRectangle;html=1;whiteSpace=wrap;connectable=0;overflow=hidden;top=0;left=0;bottom=0;right=0;pointerEvents=1;fillColor=none;" vertex="1" parent="Pt9WqsQkKKoT_3nrHR7m-279">
          <mxGeometry x="90" width="60" height="35" as="geometry">
            <mxRectangle width="60" height="35" as="alternateBounds" />
          </mxGeometry>
        </mxCell>
        <mxCell id="Pt9WqsQkKKoT_3nrHR7m-282" value="M2" style="shape=partialRectangle;html=1;whiteSpace=wrap;connectable=0;strokeColor=inherit;overflow=hidden;fillColor=none;top=0;left=0;bottom=0;right=0;pointerEvents=1;" vertex="1" parent="Pt9WqsQkKKoT_3nrHR7m-279">
          <mxGeometry x="150" width="60" height="35" as="geometry">
            <mxRectangle width="60" height="35" as="alternateBounds" />
          </mxGeometry>
        </mxCell>
        <mxCell id="Pt9WqsQkKKoT_3nrHR7m-283" value="M3" style="shape=partialRectangle;html=1;whiteSpace=wrap;connectable=0;strokeColor=inherit;overflow=hidden;fillColor=none;top=0;left=0;bottom=0;right=0;pointerEvents=1;" vertex="1" parent="Pt9WqsQkKKoT_3nrHR7m-279">
          <mxGeometry x="210" width="60" height="35" as="geometry">
            <mxRectangle width="60" height="35" as="alternateBounds" />
          </mxGeometry>
        </mxCell>
        <mxCell id="Pt9WqsQkKKoT_3nrHR7m-284" value="M4" style="shape=partialRectangle;html=1;whiteSpace=wrap;connectable=0;strokeColor=inherit;overflow=hidden;fillColor=none;top=0;left=0;bottom=0;right=0;pointerEvents=1;" vertex="1" parent="Pt9WqsQkKKoT_3nrHR7m-279">
          <mxGeometry x="270" width="60" height="35" as="geometry">
            <mxRectangle width="60" height="35" as="alternateBounds" />
          </mxGeometry>
        </mxCell>
        <mxCell id="Pt9WqsQkKKoT_3nrHR7m-285" value="W5" style="shape=tableRow;horizontal=0;startSize=30;swimlaneHead=0;swimlaneBody=0;strokeColor=inherit;top=0;left=0;bottom=0;right=0;collapsible=0;dropTarget=0;fillColor=none;points=[[0,0.5],[1,0.5]];portConstraint=eastwest;" vertex="1" parent="Pt9WqsQkKKoT_3nrHR7m-254">
          <mxGeometry y="201" width="330" height="35" as="geometry" />
        </mxCell>
        <mxCell id="Pt9WqsQkKKoT_3nrHR7m-286" value="M5" style="shape=partialRectangle;html=1;whiteSpace=wrap;connectable=0;overflow=hidden;top=0;left=0;bottom=0;right=0;pointerEvents=1;fillColor=none;" vertex="1" parent="Pt9WqsQkKKoT_3nrHR7m-285">
          <mxGeometry x="30" width="60" height="35" as="geometry">
            <mxRectangle width="60" height="35" as="alternateBounds" />
          </mxGeometry>
        </mxCell>
        <mxCell id="Pt9WqsQkKKoT_3nrHR7m-287" value="M4" style="shape=partialRectangle;html=1;whiteSpace=wrap;connectable=0;overflow=hidden;top=0;left=0;bottom=0;right=0;pointerEvents=1;fillColor=none;" vertex="1" parent="Pt9WqsQkKKoT_3nrHR7m-285">
          <mxGeometry x="90" width="60" height="35" as="geometry">
            <mxRectangle width="60" height="35" as="alternateBounds" />
          </mxGeometry>
        </mxCell>
        <mxCell id="Pt9WqsQkKKoT_3nrHR7m-288" value="M3" style="shape=partialRectangle;html=1;whiteSpace=wrap;connectable=0;strokeColor=inherit;overflow=hidden;fillColor=none;top=0;left=0;bottom=0;right=0;pointerEvents=1;" vertex="1" parent="Pt9WqsQkKKoT_3nrHR7m-285">
          <mxGeometry x="150" width="60" height="35" as="geometry">
            <mxRectangle width="60" height="35" as="alternateBounds" />
          </mxGeometry>
        </mxCell>
        <mxCell id="Pt9WqsQkKKoT_3nrHR7m-289" value="M2" style="shape=partialRectangle;html=1;whiteSpace=wrap;connectable=0;strokeColor=inherit;overflow=hidden;fillColor=none;top=0;left=0;bottom=0;right=0;pointerEvents=1;" vertex="1" parent="Pt9WqsQkKKoT_3nrHR7m-285">
          <mxGeometry x="210" width="60" height="35" as="geometry">
            <mxRectangle width="60" height="35" as="alternateBounds" />
          </mxGeometry>
        </mxCell>
        <mxCell id="Pt9WqsQkKKoT_3nrHR7m-290" value="M1" style="shape=partialRectangle;html=1;whiteSpace=wrap;connectable=0;strokeColor=inherit;overflow=hidden;fillColor=none;top=0;left=0;bottom=0;right=0;pointerEvents=1;" vertex="1" parent="Pt9WqsQkKKoT_3nrHR7m-285">
          <mxGeometry x="270" width="60" height="35" as="geometry">
            <mxRectangle width="60" height="35" as="alternateBounds" />
          </mxGeometry>
        </mxCell>
        <mxCell id="Pt9WqsQkKKoT_3nrHR7m-291" value="P" style="ellipse;whiteSpace=wrap;html=1;aspect=fixed;strokeColor=#314354;align=center;verticalAlign=middle;fontFamily=Helvetica;fontSize=12;fillColor=#000000;fontColor=#ffffff;" vertex="1" parent="1">
          <mxGeometry x="692" y="561" width="15" height="15" as="geometry" />
        </mxCell>
        <mxCell id="Pt9WqsQkKKoT_3nrHR7m-292" value="P" style="ellipse;whiteSpace=wrap;html=1;aspect=fixed;strokeColor=#314354;align=center;verticalAlign=middle;fontFamily=Helvetica;fontSize=12;fillColor=#000000;fontColor=#ffffff;" vertex="1" parent="1">
          <mxGeometry x="692" y="597" width="15" height="15" as="geometry" />
        </mxCell>
        <mxCell id="Pt9WqsQkKKoT_3nrHR7m-293" value="P" style="ellipse;whiteSpace=wrap;html=1;aspect=fixed;strokeColor=#314354;align=center;verticalAlign=middle;fontFamily=Helvetica;fontSize=12;fillColor=#000000;fontColor=#ffffff;" vertex="1" parent="1">
          <mxGeometry x="692" y="632" width="15" height="15" as="geometry" />
        </mxCell>
        <mxCell id="Pt9WqsQkKKoT_3nrHR7m-294" value="P" style="ellipse;whiteSpace=wrap;html=1;aspect=fixed;strokeColor=#314354;align=center;verticalAlign=middle;fontFamily=Helvetica;fontSize=12;fillColor=#000000;fontColor=#ffffff;" vertex="1" parent="1">
          <mxGeometry x="692" y="667" width="15" height="15" as="geometry" />
        </mxCell>
        <mxCell id="Pt9WqsQkKKoT_3nrHR7m-295" value="P" style="ellipse;whiteSpace=wrap;html=1;aspect=fixed;strokeColor=#314354;align=center;verticalAlign=middle;fontFamily=Helvetica;fontSize=12;fillColor=#000000;fontColor=#ffffff;" vertex="1" parent="1">
          <mxGeometry x="872" y="667" width="15" height="15" as="geometry" />
        </mxCell>
        <mxCell id="Pt9WqsQkKKoT_3nrHR7m-296" value="S" style="ellipse;whiteSpace=wrap;html=1;aspect=fixed;strokeColor=#314354;align=center;verticalAlign=middle;fontFamily=Helvetica;fontSize=12;fillColor=#999999;fontColor=#ffffff;" vertex="1" parent="1">
          <mxGeometry x="812" y="561" width="15" height="15" as="geometry" />
        </mxCell>
        <mxCell id="Pt9WqsQkKKoT_3nrHR7m-297" value="S" style="ellipse;whiteSpace=wrap;html=1;aspect=fixed;strokeColor=#314354;align=center;verticalAlign=middle;fontFamily=Helvetica;fontSize=12;fillColor=#999999;fontColor=#ffffff;" vertex="1" parent="1">
          <mxGeometry x="812" y="597" width="15" height="15" as="geometry" />
        </mxCell>
        <mxCell id="Pt9WqsQkKKoT_3nrHR7m-298" value="S" style="ellipse;whiteSpace=wrap;html=1;aspect=fixed;strokeColor=#314354;align=center;verticalAlign=middle;fontFamily=Helvetica;fontSize=12;fillColor=#999999;fontColor=#ffffff;" vertex="1" parent="1">
          <mxGeometry x="632" y="632" width="15" height="15" as="geometry" />
        </mxCell>
        <mxCell id="Pt9WqsQkKKoT_3nrHR7m-299" value="S" style="ellipse;whiteSpace=wrap;html=1;aspect=fixed;strokeColor=#314354;align=center;verticalAlign=middle;fontFamily=Helvetica;fontSize=12;fillColor=#999999;fontColor=#ffffff;" vertex="1" parent="1">
          <mxGeometry x="752" y="561" width="15" height="15" as="geometry" />
        </mxCell>
        <mxCell id="Pt9WqsQkKKoT_3nrHR7m-300" value="S" style="ellipse;whiteSpace=wrap;html=1;aspect=fixed;strokeColor=#314354;align=center;verticalAlign=middle;fontFamily=Helvetica;fontSize=12;fillColor=#999999;fontColor=#ffffff;" vertex="1" parent="1">
          <mxGeometry x="632" y="597" width="15" height="15" as="geometry" />
        </mxCell>
        <mxCell id="Pt9WqsQkKKoT_3nrHR7m-302" value="S" style="ellipse;whiteSpace=wrap;html=1;aspect=fixed;strokeColor=#314354;align=center;verticalAlign=middle;fontFamily=Helvetica;fontSize=12;fillColor=#999999;fontColor=#ffffff;" vertex="1" parent="1">
          <mxGeometry x="812" y="667" width="15" height="15" as="geometry" />
        </mxCell>
        <mxCell id="Pt9WqsQkKKoT_3nrHR7m-303" value="S" style="ellipse;whiteSpace=wrap;html=1;aspect=fixed;strokeColor=#314354;align=center;verticalAlign=middle;fontFamily=Helvetica;fontSize=12;fillColor=#999999;fontColor=#ffffff;" vertex="1" parent="1">
          <mxGeometry x="812" y="632" width="15" height="15" as="geometry" />
        </mxCell>
        <mxCell id="Pt9WqsQkKKoT_3nrHR7m-304" value="S" style="ellipse;whiteSpace=wrap;html=1;aspect=fixed;strokeColor=#314354;align=center;verticalAlign=middle;fontFamily=Helvetica;fontSize=12;fillColor=#999999;fontColor=#ffffff;" vertex="1" parent="1">
          <mxGeometry x="752" y="667" width="15" height="15" as="geometry" />
        </mxCell>
        <mxCell id="Pt9WqsQkKKoT_3nrHR7m-305" value="S" style="ellipse;whiteSpace=wrap;html=1;aspect=fixed;strokeColor=#314354;align=center;verticalAlign=middle;fontFamily=Helvetica;fontSize=12;fillColor=#999999;fontColor=#ffffff;" vertex="1" parent="1">
          <mxGeometry x="632" y="561" width="15" height="15" as="geometry" />
        </mxCell>
        <mxCell id="Pt9WqsQkKKoT_3nrHR7m-307" value="S" style="ellipse;whiteSpace=wrap;html=1;aspect=fixed;strokeColor=#314354;align=center;verticalAlign=middle;fontFamily=Helvetica;fontSize=12;fillColor=#999999;fontColor=#ffffff;" vertex="1" parent="1">
          <mxGeometry x="752" y="597" width="15" height="15" as="geometry" />
        </mxCell>
        <mxCell id="Pt9WqsQkKKoT_3nrHR7m-308" value="S" style="ellipse;whiteSpace=wrap;html=1;aspect=fixed;strokeColor=#314354;align=center;verticalAlign=middle;fontFamily=Helvetica;fontSize=12;fillColor=#999999;fontColor=#ffffff;" vertex="1" parent="1">
          <mxGeometry x="752" y="632" width="15" height="15" as="geometry" />
        </mxCell>
        <mxCell id="Pt9WqsQkKKoT_3nrHR7m-309" value="S" style="ellipse;whiteSpace=wrap;html=1;aspect=fixed;strokeColor=#314354;align=center;verticalAlign=middle;fontFamily=Helvetica;fontSize=12;fillColor=#999999;fontColor=#ffffff;" vertex="1" parent="1">
          <mxGeometry x="632" y="667" width="15" height="15" as="geometry" />
        </mxCell>
        <mxCell id="Pt9WqsQkKKoT_3nrHR7m-310" value="S" style="ellipse;whiteSpace=wrap;html=1;aspect=fixed;strokeColor=#314354;align=center;verticalAlign=middle;fontFamily=Helvetica;fontSize=12;fillColor=#999999;fontColor=#ffffff;" vertex="1" parent="1">
          <mxGeometry x="872" y="561" width="15" height="15" as="geometry" />
        </mxCell>
        <mxCell id="Pt9WqsQkKKoT_3nrHR7m-311" value="S" style="ellipse;whiteSpace=wrap;html=1;aspect=fixed;strokeColor=#314354;align=center;verticalAlign=middle;fontFamily=Helvetica;fontSize=12;fillColor=#999999;fontColor=#ffffff;" vertex="1" parent="1">
          <mxGeometry x="872" y="597" width="15" height="15" as="geometry" />
        </mxCell>
        <mxCell id="Pt9WqsQkKKoT_3nrHR7m-312" value="S" style="ellipse;whiteSpace=wrap;html=1;aspect=fixed;strokeColor=#314354;align=center;verticalAlign=middle;fontFamily=Helvetica;fontSize=12;fillColor=#999999;fontColor=#ffffff;" vertex="1" parent="1">
          <mxGeometry x="872" y="632" width="15" height="15" as="geometry" />
        </mxCell>
        <mxCell id="Pt9WqsQkKKoT_3nrHR7m-313" value="S" style="ellipse;whiteSpace=wrap;html=1;aspect=fixed;strokeColor=#314354;align=center;verticalAlign=middle;fontFamily=Helvetica;fontSize=12;fillColor=#999999;fontColor=#ffffff;" vertex="1" parent="1">
          <mxGeometry x="632" y="702" width="15" height="15" as="geometry" />
        </mxCell>
        <mxCell id="Pt9WqsQkKKoT_3nrHR7m-314" value="P" style="ellipse;whiteSpace=wrap;html=1;aspect=fixed;strokeColor=#314354;align=center;verticalAlign=middle;fontFamily=Helvetica;fontSize=12;fillColor=#000000;fontColor=#ffffff;" vertex="1" parent="1">
          <mxGeometry x="1000" y="610" width="15" height="15" as="geometry" />
        </mxCell>
        <mxCell id="Pt9WqsQkKKoT_3nrHR7m-315" value="S" style="ellipse;whiteSpace=wrap;html=1;aspect=fixed;strokeColor=#314354;align=center;verticalAlign=middle;fontFamily=Helvetica;fontSize=12;fillColor=#999999;fontColor=#ffffff;" vertex="1" parent="1">
          <mxGeometry x="1000" y="660" width="15" height="15" as="geometry" />
        </mxCell>
        <mxCell id="Pt9WqsQkKKoT_3nrHR7m-317" value="&lt;h1&gt;&lt;span style=&quot;font-size: 12px; font-weight: 400;&quot;&gt;: Proposals made in parallel&lt;/span&gt;&lt;/h1&gt;" style="text;strokeColor=none;align=left;fillColor=none;html=1;verticalAlign=middle;whiteSpace=wrap;rounded=0;fontFamily=Helvetica;fontSize=12;fontColor=default;" vertex="1" parent="1">
          <mxGeometry x="1015" y="597" width="360" height="30" as="geometry" />
        </mxCell>
        <mxCell id="Pt9WqsQkKKoT_3nrHR7m-318" value="&lt;h1&gt;&lt;span style=&quot;font-size: 12px; font-weight: 400;&quot;&gt;: Proposals made in serial&lt;/span&gt;&lt;/h1&gt;" style="text;strokeColor=none;align=left;fillColor=none;html=1;verticalAlign=middle;whiteSpace=wrap;rounded=0;fontFamily=Helvetica;fontSize=12;fontColor=default;" vertex="1" parent="1">
          <mxGeometry x="1015" y="648" width="360" height="30" as="geometry" />
        </mxCell>
        <mxCell id="Pt9WqsQkKKoT_3nrHR7m-319" value="" style="endArrow=none;html=1;rounded=0;strokeWidth=4;" edge="1" parent="1">
          <mxGeometry width="50" height="50" relative="1" as="geometry">
            <mxPoint x="-50" y="210" as="sourcePoint" />
            <mxPoint x="1330" y="210" as="targetPoint" />
          </mxGeometry>
        </mxCell>
        <mxCell id="Pt9WqsQkKKoT_3nrHR7m-321" value="Men&#39;s Preference Lists" style="shape=table;startSize=30;container=1;collapsible=0;childLayout=tableLayout;resizeLast=0;resizeLastRow=0;fontStyle=1;fontSize=12;" vertex="1" parent="1">
          <mxGeometry x="200" y="-40" width="330" height="235.5" as="geometry" />
        </mxCell>
        <mxCell id="Pt9WqsQkKKoT_3nrHR7m-322" value="" style="shape=tableRow;horizontal=0;startSize=30;swimlaneHead=0;swimlaneBody=0;strokeColor=inherit;top=0;left=0;bottom=0;right=0;collapsible=0;dropTarget=0;fillColor=none;points=[[0,0.5],[1,0.5]];portConstraint=eastwest;" vertex="1" parent="Pt9WqsQkKKoT_3nrHR7m-321">
          <mxGeometry y="30" width="330" height="31" as="geometry" />
        </mxCell>
        <mxCell id="Pt9WqsQkKKoT_3nrHR7m-323" value="Rank1" style="shape=partialRectangle;html=1;whiteSpace=wrap;connectable=0;strokeColor=inherit;overflow=hidden;fillColor=none;top=0;left=0;bottom=0;right=0;pointerEvents=1;" vertex="1" parent="Pt9WqsQkKKoT_3nrHR7m-322">
          <mxGeometry x="30" width="60" height="31" as="geometry">
            <mxRectangle width="60" height="31" as="alternateBounds" />
          </mxGeometry>
        </mxCell>
        <mxCell id="Pt9WqsQkKKoT_3nrHR7m-324" value="Rank2" style="shape=partialRectangle;html=1;whiteSpace=wrap;connectable=0;strokeColor=inherit;overflow=hidden;fillColor=none;top=0;left=0;bottom=0;right=0;pointerEvents=1;" vertex="1" parent="Pt9WqsQkKKoT_3nrHR7m-322">
          <mxGeometry x="90" width="60" height="31" as="geometry">
            <mxRectangle width="60" height="31" as="alternateBounds" />
          </mxGeometry>
        </mxCell>
        <mxCell id="Pt9WqsQkKKoT_3nrHR7m-325" value="Rank3" style="shape=partialRectangle;html=1;whiteSpace=wrap;connectable=0;strokeColor=inherit;overflow=hidden;fillColor=none;top=0;left=0;bottom=0;right=0;pointerEvents=1;strokeWidth=1;resizeWidth=1;resizeHeight=1;" vertex="1" parent="Pt9WqsQkKKoT_3nrHR7m-322">
          <mxGeometry x="150" width="60" height="31" as="geometry">
            <mxRectangle width="60" height="31" as="alternateBounds" />
          </mxGeometry>
        </mxCell>
        <mxCell id="Pt9WqsQkKKoT_3nrHR7m-326" value="Rank4" style="shape=partialRectangle;html=1;whiteSpace=wrap;connectable=0;strokeColor=inherit;overflow=hidden;fillColor=none;top=0;left=0;bottom=0;right=0;pointerEvents=1;strokeWidth=1;resizeWidth=1;resizeHeight=1;" vertex="1" parent="Pt9WqsQkKKoT_3nrHR7m-322">
          <mxGeometry x="210" width="60" height="31" as="geometry">
            <mxRectangle width="60" height="31" as="alternateBounds" />
          </mxGeometry>
        </mxCell>
        <mxCell id="Pt9WqsQkKKoT_3nrHR7m-327" value="Rank5" style="shape=partialRectangle;html=1;whiteSpace=wrap;connectable=0;strokeColor=inherit;overflow=hidden;fillColor=none;top=0;left=0;bottom=0;right=0;pointerEvents=1;strokeWidth=1;resizeWidth=1;resizeHeight=1;" vertex="1" parent="Pt9WqsQkKKoT_3nrHR7m-322">
          <mxGeometry x="270" width="60" height="31" as="geometry">
            <mxRectangle width="60" height="31" as="alternateBounds" />
          </mxGeometry>
        </mxCell>
        <mxCell id="Pt9WqsQkKKoT_3nrHR7m-328" value="M1" style="shape=tableRow;horizontal=0;startSize=30;swimlaneHead=0;swimlaneBody=0;strokeColor=inherit;top=0;left=0;bottom=0;right=0;collapsible=0;dropTarget=0;fillColor=none;points=[[0,0.5],[1,0.5]];portConstraint=eastwest;" vertex="1" parent="Pt9WqsQkKKoT_3nrHR7m-321">
          <mxGeometry y="61" width="330" height="35" as="geometry" />
        </mxCell>
        <mxCell id="Pt9WqsQkKKoT_3nrHR7m-329" value="W1" style="shape=partialRectangle;html=1;whiteSpace=wrap;connectable=0;overflow=hidden;top=0;left=0;bottom=0;right=0;pointerEvents=1;strokeColor=default;fillColor=none;" vertex="1" parent="Pt9WqsQkKKoT_3nrHR7m-328">
          <mxGeometry x="30" width="60" height="35" as="geometry">
            <mxRectangle width="60" height="35" as="alternateBounds" />
          </mxGeometry>
        </mxCell>
        <mxCell id="Pt9WqsQkKKoT_3nrHR7m-330" value="W2" style="shape=partialRectangle;html=1;whiteSpace=wrap;connectable=0;overflow=hidden;top=0;left=0;bottom=0;right=0;pointerEvents=1;fillColor=none;labelBackgroundColor=none;labelBorderColor=none;strokeColor=default;shadow=0;resizable=1;resizeWidth=0;metaEdit=0;backgroundOutline=0;" vertex="1" parent="Pt9WqsQkKKoT_3nrHR7m-328">
          <mxGeometry x="90" width="60" height="35" as="geometry">
            <mxRectangle width="60" height="35" as="alternateBounds" />
          </mxGeometry>
        </mxCell>
        <mxCell id="Pt9WqsQkKKoT_3nrHR7m-331" value="W3" style="shape=partialRectangle;html=1;whiteSpace=wrap;connectable=0;overflow=hidden;top=0;left=0;bottom=0;right=0;pointerEvents=1;fillColor=none;" vertex="1" parent="Pt9WqsQkKKoT_3nrHR7m-328">
          <mxGeometry x="150" width="60" height="35" as="geometry">
            <mxRectangle width="60" height="35" as="alternateBounds" />
          </mxGeometry>
        </mxCell>
        <mxCell id="Pt9WqsQkKKoT_3nrHR7m-332" value="W4" style="shape=partialRectangle;html=1;whiteSpace=wrap;connectable=0;overflow=hidden;top=0;left=0;bottom=0;right=0;pointerEvents=1;fillColor=none;" vertex="1" parent="Pt9WqsQkKKoT_3nrHR7m-328">
          <mxGeometry x="210" width="60" height="35" as="geometry">
            <mxRectangle width="60" height="35" as="alternateBounds" />
          </mxGeometry>
        </mxCell>
        <mxCell id="Pt9WqsQkKKoT_3nrHR7m-333" value="W5" style="shape=partialRectangle;html=1;whiteSpace=wrap;connectable=0;overflow=hidden;top=0;left=0;bottom=0;right=0;pointerEvents=1;fillColor=none;" vertex="1" parent="Pt9WqsQkKKoT_3nrHR7m-328">
          <mxGeometry x="270" width="60" height="35" as="geometry">
            <mxRectangle width="60" height="35" as="alternateBounds" />
          </mxGeometry>
        </mxCell>
        <mxCell id="Pt9WqsQkKKoT_3nrHR7m-334" value="M2" style="shape=tableRow;horizontal=0;startSize=30;swimlaneHead=0;swimlaneBody=0;strokeColor=inherit;top=0;left=0;bottom=0;right=0;collapsible=0;dropTarget=0;fillColor=none;points=[[0,0.5],[1,0.5]];portConstraint=eastwest;" vertex="1" parent="Pt9WqsQkKKoT_3nrHR7m-321">
          <mxGeometry y="96" width="330" height="35" as="geometry" />
        </mxCell>
        <mxCell id="Pt9WqsQkKKoT_3nrHR7m-335" value="W2" style="shape=partialRectangle;html=1;whiteSpace=wrap;connectable=0;overflow=hidden;top=0;left=0;bottom=0;right=0;pointerEvents=1;strokeOpacity=100;fillColor=none;" vertex="1" parent="Pt9WqsQkKKoT_3nrHR7m-334">
          <mxGeometry x="30" width="60" height="35" as="geometry">
            <mxRectangle width="60" height="35" as="alternateBounds" />
          </mxGeometry>
        </mxCell>
        <mxCell id="Pt9WqsQkKKoT_3nrHR7m-336" value="W1" style="shape=partialRectangle;html=1;whiteSpace=wrap;connectable=0;strokeColor=inherit;overflow=hidden;fillColor=none;top=0;left=0;bottom=0;right=0;pointerEvents=1;" vertex="1" parent="Pt9WqsQkKKoT_3nrHR7m-334">
          <mxGeometry x="90" width="60" height="35" as="geometry">
            <mxRectangle width="60" height="35" as="alternateBounds" />
          </mxGeometry>
        </mxCell>
        <mxCell id="Pt9WqsQkKKoT_3nrHR7m-337" value="W3" style="shape=partialRectangle;html=1;whiteSpace=wrap;connectable=0;strokeColor=inherit;overflow=hidden;fillColor=none;top=0;left=0;bottom=0;right=0;pointerEvents=1;" vertex="1" parent="Pt9WqsQkKKoT_3nrHR7m-334">
          <mxGeometry x="150" width="60" height="35" as="geometry">
            <mxRectangle width="60" height="35" as="alternateBounds" />
          </mxGeometry>
        </mxCell>
        <mxCell id="Pt9WqsQkKKoT_3nrHR7m-338" value="W4" style="shape=partialRectangle;html=1;whiteSpace=wrap;connectable=0;strokeColor=inherit;overflow=hidden;fillColor=none;top=0;left=0;bottom=0;right=0;pointerEvents=1;" vertex="1" parent="Pt9WqsQkKKoT_3nrHR7m-334">
          <mxGeometry x="210" width="60" height="35" as="geometry">
            <mxRectangle width="60" height="35" as="alternateBounds" />
          </mxGeometry>
        </mxCell>
        <mxCell id="Pt9WqsQkKKoT_3nrHR7m-339" value="W5" style="shape=partialRectangle;html=1;whiteSpace=wrap;connectable=0;strokeColor=inherit;overflow=hidden;fillColor=none;top=0;left=0;bottom=0;right=0;pointerEvents=1;" vertex="1" parent="Pt9WqsQkKKoT_3nrHR7m-334">
          <mxGeometry x="270" width="60" height="35" as="geometry">
            <mxRectangle width="60" height="35" as="alternateBounds" />
          </mxGeometry>
        </mxCell>
        <mxCell id="Pt9WqsQkKKoT_3nrHR7m-340" value="M3" style="shape=tableRow;horizontal=0;startSize=30;swimlaneHead=0;swimlaneBody=0;strokeColor=inherit;top=0;left=0;bottom=0;right=0;collapsible=0;dropTarget=0;fillColor=none;points=[[0,0.5],[1,0.5]];portConstraint=eastwest;" vertex="1" parent="Pt9WqsQkKKoT_3nrHR7m-321">
          <mxGeometry y="131" width="330" height="35" as="geometry" />
        </mxCell>
        <mxCell id="Pt9WqsQkKKoT_3nrHR7m-341" value="W3" style="shape=partialRectangle;html=1;whiteSpace=wrap;connectable=0;overflow=hidden;top=0;left=0;bottom=0;right=0;pointerEvents=1;fillColor=none;" vertex="1" parent="Pt9WqsQkKKoT_3nrHR7m-340">
          <mxGeometry x="30" width="60" height="35" as="geometry">
            <mxRectangle width="60" height="35" as="alternateBounds" />
          </mxGeometry>
        </mxCell>
        <mxCell id="Pt9WqsQkKKoT_3nrHR7m-342" value="W1" style="shape=partialRectangle;html=1;whiteSpace=wrap;connectable=0;overflow=hidden;top=0;left=0;bottom=0;right=0;pointerEvents=1;fillColor=none;" vertex="1" parent="Pt9WqsQkKKoT_3nrHR7m-340">
          <mxGeometry x="90" width="60" height="35" as="geometry">
            <mxRectangle width="60" height="35" as="alternateBounds" />
          </mxGeometry>
        </mxCell>
        <mxCell id="Pt9WqsQkKKoT_3nrHR7m-343" value="W2" style="shape=partialRectangle;html=1;whiteSpace=wrap;connectable=0;strokeColor=inherit;overflow=hidden;fillColor=none;top=0;left=0;bottom=0;right=0;pointerEvents=1;" vertex="1" parent="Pt9WqsQkKKoT_3nrHR7m-340">
          <mxGeometry x="150" width="60" height="35" as="geometry">
            <mxRectangle width="60" height="35" as="alternateBounds" />
          </mxGeometry>
        </mxCell>
        <mxCell id="Pt9WqsQkKKoT_3nrHR7m-344" value="W4" style="shape=partialRectangle;html=1;whiteSpace=wrap;connectable=0;strokeColor=inherit;overflow=hidden;fillColor=none;top=0;left=0;bottom=0;right=0;pointerEvents=1;" vertex="1" parent="Pt9WqsQkKKoT_3nrHR7m-340">
          <mxGeometry x="210" width="60" height="35" as="geometry">
            <mxRectangle width="60" height="35" as="alternateBounds" />
          </mxGeometry>
        </mxCell>
        <mxCell id="Pt9WqsQkKKoT_3nrHR7m-345" value="W5" style="shape=partialRectangle;html=1;whiteSpace=wrap;connectable=0;strokeColor=inherit;overflow=hidden;fillColor=none;top=0;left=0;bottom=0;right=0;pointerEvents=1;" vertex="1" parent="Pt9WqsQkKKoT_3nrHR7m-340">
          <mxGeometry x="270" width="60" height="35" as="geometry">
            <mxRectangle width="60" height="35" as="alternateBounds" />
          </mxGeometry>
        </mxCell>
        <mxCell id="Pt9WqsQkKKoT_3nrHR7m-346" value="M4" style="shape=tableRow;horizontal=0;startSize=30;swimlaneHead=0;swimlaneBody=0;strokeColor=inherit;top=0;left=0;bottom=0;right=0;collapsible=0;dropTarget=0;fillColor=none;points=[[0,0.5],[1,0.5]];portConstraint=eastwest;" vertex="1" parent="Pt9WqsQkKKoT_3nrHR7m-321">
          <mxGeometry y="166" width="330" height="35" as="geometry" />
        </mxCell>
        <mxCell id="Pt9WqsQkKKoT_3nrHR7m-347" value="W4" style="shape=partialRectangle;html=1;whiteSpace=wrap;connectable=0;overflow=hidden;top=0;left=0;bottom=0;right=0;pointerEvents=1;fillColor=none;" vertex="1" parent="Pt9WqsQkKKoT_3nrHR7m-346">
          <mxGeometry x="30" width="60" height="35" as="geometry">
            <mxRectangle width="60" height="35" as="alternateBounds" />
          </mxGeometry>
        </mxCell>
        <mxCell id="Pt9WqsQkKKoT_3nrHR7m-348" value="W1" style="shape=partialRectangle;html=1;whiteSpace=wrap;connectable=0;overflow=hidden;top=0;left=0;bottom=0;right=0;pointerEvents=1;fillColor=none;" vertex="1" parent="Pt9WqsQkKKoT_3nrHR7m-346">
          <mxGeometry x="90" width="60" height="35" as="geometry">
            <mxRectangle width="60" height="35" as="alternateBounds" />
          </mxGeometry>
        </mxCell>
        <mxCell id="Pt9WqsQkKKoT_3nrHR7m-349" value="W2" style="shape=partialRectangle;html=1;whiteSpace=wrap;connectable=0;strokeColor=inherit;overflow=hidden;fillColor=none;top=0;left=0;bottom=0;right=0;pointerEvents=1;" vertex="1" parent="Pt9WqsQkKKoT_3nrHR7m-346">
          <mxGeometry x="150" width="60" height="35" as="geometry">
            <mxRectangle width="60" height="35" as="alternateBounds" />
          </mxGeometry>
        </mxCell>
        <mxCell id="Pt9WqsQkKKoT_3nrHR7m-350" value="W3" style="shape=partialRectangle;html=1;whiteSpace=wrap;connectable=0;strokeColor=inherit;overflow=hidden;fillColor=none;top=0;left=0;bottom=0;right=0;pointerEvents=1;" vertex="1" parent="Pt9WqsQkKKoT_3nrHR7m-346">
          <mxGeometry x="210" width="60" height="35" as="geometry">
            <mxRectangle width="60" height="35" as="alternateBounds" />
          </mxGeometry>
        </mxCell>
        <mxCell id="Pt9WqsQkKKoT_3nrHR7m-351" value="W5" style="shape=partialRectangle;html=1;whiteSpace=wrap;connectable=0;strokeColor=inherit;overflow=hidden;fillColor=none;top=0;left=0;bottom=0;right=0;pointerEvents=1;" vertex="1" parent="Pt9WqsQkKKoT_3nrHR7m-346">
          <mxGeometry x="270" width="60" height="35" as="geometry">
            <mxRectangle width="60" height="35" as="alternateBounds" />
          </mxGeometry>
        </mxCell>
        <mxCell id="Pt9WqsQkKKoT_3nrHR7m-352" value="M5" style="shape=tableRow;horizontal=0;startSize=30;swimlaneHead=0;swimlaneBody=0;strokeColor=inherit;top=0;left=0;bottom=0;right=0;collapsible=0;dropTarget=0;fillColor=none;points=[[0,0.5],[1,0.5]];portConstraint=eastwest;" vertex="1" parent="Pt9WqsQkKKoT_3nrHR7m-321">
          <mxGeometry y="201" width="330" height="35" as="geometry" />
        </mxCell>
        <mxCell id="Pt9WqsQkKKoT_3nrHR7m-353" value="W5" style="shape=partialRectangle;html=1;whiteSpace=wrap;connectable=0;overflow=hidden;top=0;left=0;bottom=0;right=0;pointerEvents=1;fillColor=none;" vertex="1" parent="Pt9WqsQkKKoT_3nrHR7m-352">
          <mxGeometry x="30" width="60" height="35" as="geometry">
            <mxRectangle width="60" height="35" as="alternateBounds" />
          </mxGeometry>
        </mxCell>
        <mxCell id="Pt9WqsQkKKoT_3nrHR7m-354" value="W1" style="shape=partialRectangle;html=1;whiteSpace=wrap;connectable=0;overflow=hidden;top=0;left=0;bottom=0;right=0;pointerEvents=1;fillColor=none;" vertex="1" parent="Pt9WqsQkKKoT_3nrHR7m-352">
          <mxGeometry x="90" width="60" height="35" as="geometry">
            <mxRectangle width="60" height="35" as="alternateBounds" />
          </mxGeometry>
        </mxCell>
        <mxCell id="Pt9WqsQkKKoT_3nrHR7m-355" value="W2" style="shape=partialRectangle;html=1;whiteSpace=wrap;connectable=0;strokeColor=inherit;overflow=hidden;fillColor=none;top=0;left=0;bottom=0;right=0;pointerEvents=1;" vertex="1" parent="Pt9WqsQkKKoT_3nrHR7m-352">
          <mxGeometry x="150" width="60" height="35" as="geometry">
            <mxRectangle width="60" height="35" as="alternateBounds" />
          </mxGeometry>
        </mxCell>
        <mxCell id="Pt9WqsQkKKoT_3nrHR7m-356" value="W3" style="shape=partialRectangle;html=1;whiteSpace=wrap;connectable=0;strokeColor=inherit;overflow=hidden;fillColor=none;top=0;left=0;bottom=0;right=0;pointerEvents=1;" vertex="1" parent="Pt9WqsQkKKoT_3nrHR7m-352">
          <mxGeometry x="210" width="60" height="35" as="geometry">
            <mxRectangle width="60" height="35" as="alternateBounds" />
          </mxGeometry>
        </mxCell>
        <mxCell id="Pt9WqsQkKKoT_3nrHR7m-357" value="W4" style="shape=partialRectangle;html=1;whiteSpace=wrap;connectable=0;strokeColor=inherit;overflow=hidden;fillColor=none;top=0;left=0;bottom=0;right=0;pointerEvents=1;" vertex="1" parent="Pt9WqsQkKKoT_3nrHR7m-352">
          <mxGeometry x="270" width="60" height="35" as="geometry">
            <mxRectangle width="60" height="35" as="alternateBounds" />
          </mxGeometry>
        </mxCell>
        <mxCell id="Pt9WqsQkKKoT_3nrHR7m-365" value="Women&#39;s Preference Lists" style="shape=table;startSize=30;container=1;collapsible=0;childLayout=tableLayout;resizeLast=0;resizeLastRow=0;fontStyle=1;fontSize=12;" vertex="1" parent="1">
          <mxGeometry x="601" y="-40" width="330" height="235.5" as="geometry" />
        </mxCell>
        <mxCell id="Pt9WqsQkKKoT_3nrHR7m-366" value="" style="shape=tableRow;horizontal=0;startSize=30;swimlaneHead=0;swimlaneBody=0;strokeColor=inherit;top=0;left=0;bottom=0;right=0;collapsible=0;dropTarget=0;fillColor=none;points=[[0,0.5],[1,0.5]];portConstraint=eastwest;" vertex="1" parent="Pt9WqsQkKKoT_3nrHR7m-365">
          <mxGeometry y="30" width="330" height="31" as="geometry" />
        </mxCell>
        <mxCell id="Pt9WqsQkKKoT_3nrHR7m-367" value="Rank1" style="shape=partialRectangle;html=1;whiteSpace=wrap;connectable=0;strokeColor=inherit;overflow=hidden;fillColor=none;top=0;left=0;bottom=0;right=0;pointerEvents=1;" vertex="1" parent="Pt9WqsQkKKoT_3nrHR7m-366">
          <mxGeometry x="30" width="60" height="31" as="geometry">
            <mxRectangle width="60" height="31" as="alternateBounds" />
          </mxGeometry>
        </mxCell>
        <mxCell id="Pt9WqsQkKKoT_3nrHR7m-368" value="Rank2" style="shape=partialRectangle;html=1;whiteSpace=wrap;connectable=0;strokeColor=inherit;overflow=hidden;fillColor=none;top=0;left=0;bottom=0;right=0;pointerEvents=1;" vertex="1" parent="Pt9WqsQkKKoT_3nrHR7m-366">
          <mxGeometry x="90" width="60" height="31" as="geometry">
            <mxRectangle width="60" height="31" as="alternateBounds" />
          </mxGeometry>
        </mxCell>
        <mxCell id="Pt9WqsQkKKoT_3nrHR7m-369" value="Rank3" style="shape=partialRectangle;html=1;whiteSpace=wrap;connectable=0;strokeColor=inherit;overflow=hidden;fillColor=none;top=0;left=0;bottom=0;right=0;pointerEvents=1;strokeWidth=1;resizeWidth=1;resizeHeight=1;" vertex="1" parent="Pt9WqsQkKKoT_3nrHR7m-366">
          <mxGeometry x="150" width="60" height="31" as="geometry">
            <mxRectangle width="60" height="31" as="alternateBounds" />
          </mxGeometry>
        </mxCell>
        <mxCell id="Pt9WqsQkKKoT_3nrHR7m-370" value="Rank4" style="shape=partialRectangle;html=1;whiteSpace=wrap;connectable=0;strokeColor=inherit;overflow=hidden;fillColor=none;top=0;left=0;bottom=0;right=0;pointerEvents=1;strokeWidth=1;resizeWidth=1;resizeHeight=1;" vertex="1" parent="Pt9WqsQkKKoT_3nrHR7m-366">
          <mxGeometry x="210" width="60" height="31" as="geometry">
            <mxRectangle width="60" height="31" as="alternateBounds" />
          </mxGeometry>
        </mxCell>
        <mxCell id="Pt9WqsQkKKoT_3nrHR7m-371" value="Rank5" style="shape=partialRectangle;html=1;whiteSpace=wrap;connectable=0;strokeColor=inherit;overflow=hidden;fillColor=none;top=0;left=0;bottom=0;right=0;pointerEvents=1;strokeWidth=1;resizeWidth=1;resizeHeight=1;" vertex="1" parent="Pt9WqsQkKKoT_3nrHR7m-366">
          <mxGeometry x="270" width="60" height="31" as="geometry">
            <mxRectangle width="60" height="31" as="alternateBounds" />
          </mxGeometry>
        </mxCell>
        <mxCell id="Pt9WqsQkKKoT_3nrHR7m-372" value="W1" style="shape=tableRow;horizontal=0;startSize=30;swimlaneHead=0;swimlaneBody=0;strokeColor=inherit;top=0;left=0;bottom=0;right=0;collapsible=0;dropTarget=0;fillColor=none;points=[[0,0.5],[1,0.5]];portConstraint=eastwest;" vertex="1" parent="Pt9WqsQkKKoT_3nrHR7m-365">
          <mxGeometry y="61" width="330" height="35" as="geometry" />
        </mxCell>
        <mxCell id="Pt9WqsQkKKoT_3nrHR7m-373" value="M2" style="shape=partialRectangle;html=1;whiteSpace=wrap;connectable=0;overflow=hidden;top=0;left=0;bottom=0;right=0;pointerEvents=1;strokeColor=default;fillColor=none;" vertex="1" parent="Pt9WqsQkKKoT_3nrHR7m-372">
          <mxGeometry x="30" width="60" height="35" as="geometry">
            <mxRectangle width="60" height="35" as="alternateBounds" />
          </mxGeometry>
        </mxCell>
        <mxCell id="Pt9WqsQkKKoT_3nrHR7m-374" value="M1" style="shape=partialRectangle;html=1;whiteSpace=wrap;connectable=0;overflow=hidden;top=0;left=0;bottom=0;right=0;pointerEvents=1;fillColor=none;labelBackgroundColor=none;labelBorderColor=none;strokeColor=default;shadow=0;resizable=1;resizeWidth=0;metaEdit=0;backgroundOutline=0;" vertex="1" parent="Pt9WqsQkKKoT_3nrHR7m-372">
          <mxGeometry x="90" width="60" height="35" as="geometry">
            <mxRectangle width="60" height="35" as="alternateBounds" />
          </mxGeometry>
        </mxCell>
        <mxCell id="Pt9WqsQkKKoT_3nrHR7m-375" value="M3" style="shape=partialRectangle;html=1;whiteSpace=wrap;connectable=0;overflow=hidden;top=0;left=0;bottom=0;right=0;pointerEvents=1;fillColor=none;" vertex="1" parent="Pt9WqsQkKKoT_3nrHR7m-372">
          <mxGeometry x="150" width="60" height="35" as="geometry">
            <mxRectangle width="60" height="35" as="alternateBounds" />
          </mxGeometry>
        </mxCell>
        <mxCell id="Pt9WqsQkKKoT_3nrHR7m-376" value="M5" style="shape=partialRectangle;html=1;whiteSpace=wrap;connectable=0;overflow=hidden;top=0;left=0;bottom=0;right=0;pointerEvents=1;fillColor=none;" vertex="1" parent="Pt9WqsQkKKoT_3nrHR7m-372">
          <mxGeometry x="210" width="60" height="35" as="geometry">
            <mxRectangle width="60" height="35" as="alternateBounds" />
          </mxGeometry>
        </mxCell>
        <mxCell id="Pt9WqsQkKKoT_3nrHR7m-377" value="M4" style="shape=partialRectangle;html=1;whiteSpace=wrap;connectable=0;overflow=hidden;top=0;left=0;bottom=0;right=0;pointerEvents=1;fillColor=none;" vertex="1" parent="Pt9WqsQkKKoT_3nrHR7m-372">
          <mxGeometry x="270" width="60" height="35" as="geometry">
            <mxRectangle width="60" height="35" as="alternateBounds" />
          </mxGeometry>
        </mxCell>
        <mxCell id="Pt9WqsQkKKoT_3nrHR7m-378" value="W2" style="shape=tableRow;horizontal=0;startSize=30;swimlaneHead=0;swimlaneBody=0;strokeColor=inherit;top=0;left=0;bottom=0;right=0;collapsible=0;dropTarget=0;fillColor=none;points=[[0,0.5],[1,0.5]];portConstraint=eastwest;" vertex="1" parent="Pt9WqsQkKKoT_3nrHR7m-365">
          <mxGeometry y="96" width="330" height="35" as="geometry" />
        </mxCell>
        <mxCell id="Pt9WqsQkKKoT_3nrHR7m-379" value="M5" style="shape=partialRectangle;html=1;whiteSpace=wrap;connectable=0;overflow=hidden;top=0;left=0;bottom=0;right=0;pointerEvents=1;strokeOpacity=100;fillColor=none;" vertex="1" parent="Pt9WqsQkKKoT_3nrHR7m-378">
          <mxGeometry x="30" width="60" height="35" as="geometry">
            <mxRectangle width="60" height="35" as="alternateBounds" />
          </mxGeometry>
        </mxCell>
        <mxCell id="Pt9WqsQkKKoT_3nrHR7m-380" value="M4" style="shape=partialRectangle;html=1;whiteSpace=wrap;connectable=0;strokeColor=inherit;overflow=hidden;fillColor=none;top=0;left=0;bottom=0;right=0;pointerEvents=1;" vertex="1" parent="Pt9WqsQkKKoT_3nrHR7m-378">
          <mxGeometry x="90" width="60" height="35" as="geometry">
            <mxRectangle width="60" height="35" as="alternateBounds" />
          </mxGeometry>
        </mxCell>
        <mxCell id="Pt9WqsQkKKoT_3nrHR7m-381" value="M3" style="shape=partialRectangle;html=1;whiteSpace=wrap;connectable=0;strokeColor=inherit;overflow=hidden;fillColor=none;top=0;left=0;bottom=0;right=0;pointerEvents=1;" vertex="1" parent="Pt9WqsQkKKoT_3nrHR7m-378">
          <mxGeometry x="150" width="60" height="35" as="geometry">
            <mxRectangle width="60" height="35" as="alternateBounds" />
          </mxGeometry>
        </mxCell>
        <mxCell id="Pt9WqsQkKKoT_3nrHR7m-382" value="M2" style="shape=partialRectangle;html=1;whiteSpace=wrap;connectable=0;strokeColor=inherit;overflow=hidden;fillColor=none;top=0;left=0;bottom=0;right=0;pointerEvents=1;" vertex="1" parent="Pt9WqsQkKKoT_3nrHR7m-378">
          <mxGeometry x="210" width="60" height="35" as="geometry">
            <mxRectangle width="60" height="35" as="alternateBounds" />
          </mxGeometry>
        </mxCell>
        <mxCell id="Pt9WqsQkKKoT_3nrHR7m-383" value="M1" style="shape=partialRectangle;html=1;whiteSpace=wrap;connectable=0;strokeColor=inherit;overflow=hidden;fillColor=none;top=0;left=0;bottom=0;right=0;pointerEvents=1;" vertex="1" parent="Pt9WqsQkKKoT_3nrHR7m-378">
          <mxGeometry x="270" width="60" height="35" as="geometry">
            <mxRectangle width="60" height="35" as="alternateBounds" />
          </mxGeometry>
        </mxCell>
        <mxCell id="Pt9WqsQkKKoT_3nrHR7m-384" value="W3" style="shape=tableRow;horizontal=0;startSize=30;swimlaneHead=0;swimlaneBody=0;strokeColor=inherit;top=0;left=0;bottom=0;right=0;collapsible=0;dropTarget=0;fillColor=none;points=[[0,0.5],[1,0.5]];portConstraint=eastwest;" vertex="1" parent="Pt9WqsQkKKoT_3nrHR7m-365">
          <mxGeometry y="131" width="330" height="35" as="geometry" />
        </mxCell>
        <mxCell id="Pt9WqsQkKKoT_3nrHR7m-385" value="M1" style="shape=partialRectangle;html=1;whiteSpace=wrap;connectable=0;overflow=hidden;top=0;left=0;bottom=0;right=0;pointerEvents=1;fillColor=none;" vertex="1" parent="Pt9WqsQkKKoT_3nrHR7m-384">
          <mxGeometry x="30" width="60" height="35" as="geometry">
            <mxRectangle width="60" height="35" as="alternateBounds" />
          </mxGeometry>
        </mxCell>
        <mxCell id="Pt9WqsQkKKoT_3nrHR7m-386" value="M2" style="shape=partialRectangle;html=1;whiteSpace=wrap;connectable=0;overflow=hidden;top=0;left=0;bottom=0;right=0;pointerEvents=1;fillColor=none;" vertex="1" parent="Pt9WqsQkKKoT_3nrHR7m-384">
          <mxGeometry x="90" width="60" height="35" as="geometry">
            <mxRectangle width="60" height="35" as="alternateBounds" />
          </mxGeometry>
        </mxCell>
        <mxCell id="Pt9WqsQkKKoT_3nrHR7m-387" value="M3" style="shape=partialRectangle;html=1;whiteSpace=wrap;connectable=0;strokeColor=inherit;overflow=hidden;fillColor=none;top=0;left=0;bottom=0;right=0;pointerEvents=1;" vertex="1" parent="Pt9WqsQkKKoT_3nrHR7m-384">
          <mxGeometry x="150" width="60" height="35" as="geometry">
            <mxRectangle width="60" height="35" as="alternateBounds" />
          </mxGeometry>
        </mxCell>
        <mxCell id="Pt9WqsQkKKoT_3nrHR7m-388" value="M4" style="shape=partialRectangle;html=1;whiteSpace=wrap;connectable=0;strokeColor=inherit;overflow=hidden;fillColor=none;top=0;left=0;bottom=0;right=0;pointerEvents=1;" vertex="1" parent="Pt9WqsQkKKoT_3nrHR7m-384">
          <mxGeometry x="210" width="60" height="35" as="geometry">
            <mxRectangle width="60" height="35" as="alternateBounds" />
          </mxGeometry>
        </mxCell>
        <mxCell id="Pt9WqsQkKKoT_3nrHR7m-389" value="M5" style="shape=partialRectangle;html=1;whiteSpace=wrap;connectable=0;strokeColor=inherit;overflow=hidden;fillColor=none;top=0;left=0;bottom=0;right=0;pointerEvents=1;" vertex="1" parent="Pt9WqsQkKKoT_3nrHR7m-384">
          <mxGeometry x="270" width="60" height="35" as="geometry">
            <mxRectangle width="60" height="35" as="alternateBounds" />
          </mxGeometry>
        </mxCell>
        <mxCell id="Pt9WqsQkKKoT_3nrHR7m-390" value="W4" style="shape=tableRow;horizontal=0;startSize=30;swimlaneHead=0;swimlaneBody=0;strokeColor=inherit;top=0;left=0;bottom=0;right=0;collapsible=0;dropTarget=0;fillColor=none;points=[[0,0.5],[1,0.5]];portConstraint=eastwest;" vertex="1" parent="Pt9WqsQkKKoT_3nrHR7m-365">
          <mxGeometry y="166" width="330" height="35" as="geometry" />
        </mxCell>
        <mxCell id="Pt9WqsQkKKoT_3nrHR7m-391" value="M4" style="shape=partialRectangle;html=1;whiteSpace=wrap;connectable=0;overflow=hidden;top=0;left=0;bottom=0;right=0;pointerEvents=1;fillColor=none;" vertex="1" parent="Pt9WqsQkKKoT_3nrHR7m-390">
          <mxGeometry x="30" width="60" height="35" as="geometry">
            <mxRectangle width="60" height="35" as="alternateBounds" />
          </mxGeometry>
        </mxCell>
        <mxCell id="Pt9WqsQkKKoT_3nrHR7m-392" value="M5" style="shape=partialRectangle;html=1;whiteSpace=wrap;connectable=0;overflow=hidden;top=0;left=0;bottom=0;right=0;pointerEvents=1;fillColor=none;" vertex="1" parent="Pt9WqsQkKKoT_3nrHR7m-390">
          <mxGeometry x="90" width="60" height="35" as="geometry">
            <mxRectangle width="60" height="35" as="alternateBounds" />
          </mxGeometry>
        </mxCell>
        <mxCell id="Pt9WqsQkKKoT_3nrHR7m-393" value="M3" style="shape=partialRectangle;html=1;whiteSpace=wrap;connectable=0;strokeColor=inherit;overflow=hidden;fillColor=none;top=0;left=0;bottom=0;right=0;pointerEvents=1;" vertex="1" parent="Pt9WqsQkKKoT_3nrHR7m-390">
          <mxGeometry x="150" width="60" height="35" as="geometry">
            <mxRectangle width="60" height="35" as="alternateBounds" />
          </mxGeometry>
        </mxCell>
        <mxCell id="Pt9WqsQkKKoT_3nrHR7m-394" value="M1" style="shape=partialRectangle;html=1;whiteSpace=wrap;connectable=0;strokeColor=inherit;overflow=hidden;fillColor=none;top=0;left=0;bottom=0;right=0;pointerEvents=1;" vertex="1" parent="Pt9WqsQkKKoT_3nrHR7m-390">
          <mxGeometry x="210" width="60" height="35" as="geometry">
            <mxRectangle width="60" height="35" as="alternateBounds" />
          </mxGeometry>
        </mxCell>
        <mxCell id="Pt9WqsQkKKoT_3nrHR7m-395" value="M2" style="shape=partialRectangle;html=1;whiteSpace=wrap;connectable=0;strokeColor=inherit;overflow=hidden;fillColor=none;top=0;left=0;bottom=0;right=0;pointerEvents=1;" vertex="1" parent="Pt9WqsQkKKoT_3nrHR7m-390">
          <mxGeometry x="270" width="60" height="35" as="geometry">
            <mxRectangle width="60" height="35" as="alternateBounds" />
          </mxGeometry>
        </mxCell>
        <mxCell id="Pt9WqsQkKKoT_3nrHR7m-396" value="W5" style="shape=tableRow;horizontal=0;startSize=30;swimlaneHead=0;swimlaneBody=0;strokeColor=inherit;top=0;left=0;bottom=0;right=0;collapsible=0;dropTarget=0;fillColor=none;points=[[0,0.5],[1,0.5]];portConstraint=eastwest;" vertex="1" parent="Pt9WqsQkKKoT_3nrHR7m-365">
          <mxGeometry y="201" width="330" height="35" as="geometry" />
        </mxCell>
        <mxCell id="Pt9WqsQkKKoT_3nrHR7m-397" value="M3" style="shape=partialRectangle;html=1;whiteSpace=wrap;connectable=0;overflow=hidden;top=0;left=0;bottom=0;right=0;pointerEvents=1;fillColor=none;" vertex="1" parent="Pt9WqsQkKKoT_3nrHR7m-396">
          <mxGeometry x="30" width="60" height="35" as="geometry">
            <mxRectangle width="60" height="35" as="alternateBounds" />
          </mxGeometry>
        </mxCell>
        <mxCell id="Pt9WqsQkKKoT_3nrHR7m-398" value="M5" style="shape=partialRectangle;html=1;whiteSpace=wrap;connectable=0;overflow=hidden;top=0;left=0;bottom=0;right=0;pointerEvents=1;fillColor=none;" vertex="1" parent="Pt9WqsQkKKoT_3nrHR7m-396">
          <mxGeometry x="90" width="60" height="35" as="geometry">
            <mxRectangle width="60" height="35" as="alternateBounds" />
          </mxGeometry>
        </mxCell>
        <mxCell id="Pt9WqsQkKKoT_3nrHR7m-399" value="M1" style="shape=partialRectangle;html=1;whiteSpace=wrap;connectable=0;strokeColor=inherit;overflow=hidden;fillColor=none;top=0;left=0;bottom=0;right=0;pointerEvents=1;" vertex="1" parent="Pt9WqsQkKKoT_3nrHR7m-396">
          <mxGeometry x="150" width="60" height="35" as="geometry">
            <mxRectangle width="60" height="35" as="alternateBounds" />
          </mxGeometry>
        </mxCell>
        <mxCell id="Pt9WqsQkKKoT_3nrHR7m-400" value="M2" style="shape=partialRectangle;html=1;whiteSpace=wrap;connectable=0;strokeColor=inherit;overflow=hidden;fillColor=none;top=0;left=0;bottom=0;right=0;pointerEvents=1;" vertex="1" parent="Pt9WqsQkKKoT_3nrHR7m-396">
          <mxGeometry x="210" width="60" height="35" as="geometry">
            <mxRectangle width="60" height="35" as="alternateBounds" />
          </mxGeometry>
        </mxCell>
        <mxCell id="Pt9WqsQkKKoT_3nrHR7m-401" value="M4" style="shape=partialRectangle;html=1;whiteSpace=wrap;connectable=0;strokeColor=inherit;overflow=hidden;fillColor=none;top=0;left=0;bottom=0;right=0;pointerEvents=1;" vertex="1" parent="Pt9WqsQkKKoT_3nrHR7m-396">
          <mxGeometry x="270" width="60" height="35" as="geometry">
            <mxRectangle width="60" height="35" as="alternateBounds" />
          </mxGeometry>
        </mxCell>
        <mxCell id="Pt9WqsQkKKoT_3nrHR7m-419" value="Women&#39;s Preference Lists" style="shape=table;startSize=30;container=1;collapsible=0;childLayout=tableLayout;resizeLast=0;resizeLastRow=0;fontStyle=1;fontSize=12;" vertex="1" parent="1">
          <mxGeometry x="601" y="220.5" width="330" height="235.5" as="geometry" />
        </mxCell>
        <mxCell id="Pt9WqsQkKKoT_3nrHR7m-420" value="" style="shape=tableRow;horizontal=0;startSize=30;swimlaneHead=0;swimlaneBody=0;strokeColor=inherit;top=0;left=0;bottom=0;right=0;collapsible=0;dropTarget=0;fillColor=none;points=[[0,0.5],[1,0.5]];portConstraint=eastwest;" vertex="1" parent="Pt9WqsQkKKoT_3nrHR7m-419">
          <mxGeometry y="30" width="330" height="31" as="geometry" />
        </mxCell>
        <mxCell id="Pt9WqsQkKKoT_3nrHR7m-421" value="Rank1" style="shape=partialRectangle;html=1;whiteSpace=wrap;connectable=0;strokeColor=inherit;overflow=hidden;fillColor=none;top=0;left=0;bottom=0;right=0;pointerEvents=1;" vertex="1" parent="Pt9WqsQkKKoT_3nrHR7m-420">
          <mxGeometry x="30" width="60" height="31" as="geometry">
            <mxRectangle width="60" height="31" as="alternateBounds" />
          </mxGeometry>
        </mxCell>
        <mxCell id="Pt9WqsQkKKoT_3nrHR7m-422" value="Rank2" style="shape=partialRectangle;html=1;whiteSpace=wrap;connectable=0;strokeColor=inherit;overflow=hidden;fillColor=none;top=0;left=0;bottom=0;right=0;pointerEvents=1;" vertex="1" parent="Pt9WqsQkKKoT_3nrHR7m-420">
          <mxGeometry x="90" width="60" height="31" as="geometry">
            <mxRectangle width="60" height="31" as="alternateBounds" />
          </mxGeometry>
        </mxCell>
        <mxCell id="Pt9WqsQkKKoT_3nrHR7m-423" value="Rank3" style="shape=partialRectangle;html=1;whiteSpace=wrap;connectable=0;strokeColor=inherit;overflow=hidden;fillColor=none;top=0;left=0;bottom=0;right=0;pointerEvents=1;strokeWidth=1;resizeWidth=1;resizeHeight=1;" vertex="1" parent="Pt9WqsQkKKoT_3nrHR7m-420">
          <mxGeometry x="150" width="60" height="31" as="geometry">
            <mxRectangle width="60" height="31" as="alternateBounds" />
          </mxGeometry>
        </mxCell>
        <mxCell id="Pt9WqsQkKKoT_3nrHR7m-424" value="Rank4" style="shape=partialRectangle;html=1;whiteSpace=wrap;connectable=0;strokeColor=inherit;overflow=hidden;fillColor=none;top=0;left=0;bottom=0;right=0;pointerEvents=1;strokeWidth=1;resizeWidth=1;resizeHeight=1;" vertex="1" parent="Pt9WqsQkKKoT_3nrHR7m-420">
          <mxGeometry x="210" width="60" height="31" as="geometry">
            <mxRectangle width="60" height="31" as="alternateBounds" />
          </mxGeometry>
        </mxCell>
        <mxCell id="Pt9WqsQkKKoT_3nrHR7m-425" value="Rank5" style="shape=partialRectangle;html=1;whiteSpace=wrap;connectable=0;strokeColor=inherit;overflow=hidden;fillColor=none;top=0;left=0;bottom=0;right=0;pointerEvents=1;strokeWidth=1;resizeWidth=1;resizeHeight=1;" vertex="1" parent="Pt9WqsQkKKoT_3nrHR7m-420">
          <mxGeometry x="270" width="60" height="31" as="geometry">
            <mxRectangle width="60" height="31" as="alternateBounds" />
          </mxGeometry>
        </mxCell>
        <mxCell id="Pt9WqsQkKKoT_3nrHR7m-426" value="W1" style="shape=tableRow;horizontal=0;startSize=30;swimlaneHead=0;swimlaneBody=0;strokeColor=inherit;top=0;left=0;bottom=0;right=0;collapsible=0;dropTarget=0;fillColor=none;points=[[0,0.5],[1,0.5]];portConstraint=eastwest;" vertex="1" parent="Pt9WqsQkKKoT_3nrHR7m-419">
          <mxGeometry y="61" width="330" height="35" as="geometry" />
        </mxCell>
        <mxCell id="Pt9WqsQkKKoT_3nrHR7m-427" value="M2" style="shape=partialRectangle;html=1;whiteSpace=wrap;connectable=0;overflow=hidden;top=0;left=0;bottom=0;right=0;pointerEvents=1;strokeColor=default;fillColor=none;" vertex="1" parent="Pt9WqsQkKKoT_3nrHR7m-426">
          <mxGeometry x="30" width="60" height="35" as="geometry">
            <mxRectangle width="60" height="35" as="alternateBounds" />
          </mxGeometry>
        </mxCell>
        <mxCell id="Pt9WqsQkKKoT_3nrHR7m-428" value="M1" style="shape=partialRectangle;html=1;whiteSpace=wrap;connectable=0;overflow=hidden;top=0;left=0;bottom=0;right=0;pointerEvents=1;fillColor=none;labelBackgroundColor=none;labelBorderColor=none;strokeColor=default;shadow=0;resizable=1;resizeWidth=0;metaEdit=0;backgroundOutline=0;" vertex="1" parent="Pt9WqsQkKKoT_3nrHR7m-426">
          <mxGeometry x="90" width="60" height="35" as="geometry">
            <mxRectangle width="60" height="35" as="alternateBounds" />
          </mxGeometry>
        </mxCell>
        <mxCell id="Pt9WqsQkKKoT_3nrHR7m-429" value="M3" style="shape=partialRectangle;html=1;whiteSpace=wrap;connectable=0;overflow=hidden;top=0;left=0;bottom=0;right=0;pointerEvents=1;fillColor=none;" vertex="1" parent="Pt9WqsQkKKoT_3nrHR7m-426">
          <mxGeometry x="150" width="60" height="35" as="geometry">
            <mxRectangle width="60" height="35" as="alternateBounds" />
          </mxGeometry>
        </mxCell>
        <mxCell id="Pt9WqsQkKKoT_3nrHR7m-430" value="M5" style="shape=partialRectangle;html=1;whiteSpace=wrap;connectable=0;overflow=hidden;top=0;left=0;bottom=0;right=0;pointerEvents=1;fillColor=none;" vertex="1" parent="Pt9WqsQkKKoT_3nrHR7m-426">
          <mxGeometry x="210" width="60" height="35" as="geometry">
            <mxRectangle width="60" height="35" as="alternateBounds" />
          </mxGeometry>
        </mxCell>
        <mxCell id="Pt9WqsQkKKoT_3nrHR7m-431" value="M4" style="shape=partialRectangle;html=1;whiteSpace=wrap;connectable=0;overflow=hidden;top=0;left=0;bottom=0;right=0;pointerEvents=1;fillColor=none;" vertex="1" parent="Pt9WqsQkKKoT_3nrHR7m-426">
          <mxGeometry x="270" width="60" height="35" as="geometry">
            <mxRectangle width="60" height="35" as="alternateBounds" />
          </mxGeometry>
        </mxCell>
        <mxCell id="Pt9WqsQkKKoT_3nrHR7m-432" value="W2" style="shape=tableRow;horizontal=0;startSize=30;swimlaneHead=0;swimlaneBody=0;strokeColor=inherit;top=0;left=0;bottom=0;right=0;collapsible=0;dropTarget=0;fillColor=none;points=[[0,0.5],[1,0.5]];portConstraint=eastwest;" vertex="1" parent="Pt9WqsQkKKoT_3nrHR7m-419">
          <mxGeometry y="96" width="330" height="35" as="geometry" />
        </mxCell>
        <mxCell id="Pt9WqsQkKKoT_3nrHR7m-433" value="M5" style="shape=partialRectangle;html=1;whiteSpace=wrap;connectable=0;overflow=hidden;top=0;left=0;bottom=0;right=0;pointerEvents=1;strokeOpacity=100;fillColor=none;" vertex="1" parent="Pt9WqsQkKKoT_3nrHR7m-432">
          <mxGeometry x="30" width="60" height="35" as="geometry">
            <mxRectangle width="60" height="35" as="alternateBounds" />
          </mxGeometry>
        </mxCell>
        <mxCell id="Pt9WqsQkKKoT_3nrHR7m-434" value="M4" style="shape=partialRectangle;html=1;whiteSpace=wrap;connectable=0;strokeColor=inherit;overflow=hidden;fillColor=none;top=0;left=0;bottom=0;right=0;pointerEvents=1;" vertex="1" parent="Pt9WqsQkKKoT_3nrHR7m-432">
          <mxGeometry x="90" width="60" height="35" as="geometry">
            <mxRectangle width="60" height="35" as="alternateBounds" />
          </mxGeometry>
        </mxCell>
        <mxCell id="Pt9WqsQkKKoT_3nrHR7m-435" value="M3" style="shape=partialRectangle;html=1;whiteSpace=wrap;connectable=0;strokeColor=inherit;overflow=hidden;fillColor=none;top=0;left=0;bottom=0;right=0;pointerEvents=1;" vertex="1" parent="Pt9WqsQkKKoT_3nrHR7m-432">
          <mxGeometry x="150" width="60" height="35" as="geometry">
            <mxRectangle width="60" height="35" as="alternateBounds" />
          </mxGeometry>
        </mxCell>
        <mxCell id="Pt9WqsQkKKoT_3nrHR7m-436" value="M2" style="shape=partialRectangle;html=1;whiteSpace=wrap;connectable=0;strokeColor=inherit;overflow=hidden;fillColor=none;top=0;left=0;bottom=0;right=0;pointerEvents=1;" vertex="1" parent="Pt9WqsQkKKoT_3nrHR7m-432">
          <mxGeometry x="210" width="60" height="35" as="geometry">
            <mxRectangle width="60" height="35" as="alternateBounds" />
          </mxGeometry>
        </mxCell>
        <mxCell id="Pt9WqsQkKKoT_3nrHR7m-437" value="M1" style="shape=partialRectangle;html=1;whiteSpace=wrap;connectable=0;strokeColor=inherit;overflow=hidden;fillColor=none;top=0;left=0;bottom=0;right=0;pointerEvents=1;" vertex="1" parent="Pt9WqsQkKKoT_3nrHR7m-432">
          <mxGeometry x="270" width="60" height="35" as="geometry">
            <mxRectangle width="60" height="35" as="alternateBounds" />
          </mxGeometry>
        </mxCell>
        <mxCell id="Pt9WqsQkKKoT_3nrHR7m-438" value="W3" style="shape=tableRow;horizontal=0;startSize=30;swimlaneHead=0;swimlaneBody=0;strokeColor=inherit;top=0;left=0;bottom=0;right=0;collapsible=0;dropTarget=0;fillColor=none;points=[[0,0.5],[1,0.5]];portConstraint=eastwest;" vertex="1" parent="Pt9WqsQkKKoT_3nrHR7m-419">
          <mxGeometry y="131" width="330" height="35" as="geometry" />
        </mxCell>
        <mxCell id="Pt9WqsQkKKoT_3nrHR7m-439" value="M1" style="shape=partialRectangle;html=1;whiteSpace=wrap;connectable=0;overflow=hidden;top=0;left=0;bottom=0;right=0;pointerEvents=1;fillColor=none;" vertex="1" parent="Pt9WqsQkKKoT_3nrHR7m-438">
          <mxGeometry x="30" width="60" height="35" as="geometry">
            <mxRectangle width="60" height="35" as="alternateBounds" />
          </mxGeometry>
        </mxCell>
        <mxCell id="Pt9WqsQkKKoT_3nrHR7m-440" value="M2" style="shape=partialRectangle;html=1;whiteSpace=wrap;connectable=0;overflow=hidden;top=0;left=0;bottom=0;right=0;pointerEvents=1;fillColor=none;" vertex="1" parent="Pt9WqsQkKKoT_3nrHR7m-438">
          <mxGeometry x="90" width="60" height="35" as="geometry">
            <mxRectangle width="60" height="35" as="alternateBounds" />
          </mxGeometry>
        </mxCell>
        <mxCell id="Pt9WqsQkKKoT_3nrHR7m-441" value="M3" style="shape=partialRectangle;html=1;whiteSpace=wrap;connectable=0;strokeColor=inherit;overflow=hidden;fillColor=none;top=0;left=0;bottom=0;right=0;pointerEvents=1;" vertex="1" parent="Pt9WqsQkKKoT_3nrHR7m-438">
          <mxGeometry x="150" width="60" height="35" as="geometry">
            <mxRectangle width="60" height="35" as="alternateBounds" />
          </mxGeometry>
        </mxCell>
        <mxCell id="Pt9WqsQkKKoT_3nrHR7m-442" value="M4" style="shape=partialRectangle;html=1;whiteSpace=wrap;connectable=0;strokeColor=inherit;overflow=hidden;fillColor=none;top=0;left=0;bottom=0;right=0;pointerEvents=1;" vertex="1" parent="Pt9WqsQkKKoT_3nrHR7m-438">
          <mxGeometry x="210" width="60" height="35" as="geometry">
            <mxRectangle width="60" height="35" as="alternateBounds" />
          </mxGeometry>
        </mxCell>
        <mxCell id="Pt9WqsQkKKoT_3nrHR7m-443" value="M5" style="shape=partialRectangle;html=1;whiteSpace=wrap;connectable=0;strokeColor=inherit;overflow=hidden;fillColor=none;top=0;left=0;bottom=0;right=0;pointerEvents=1;" vertex="1" parent="Pt9WqsQkKKoT_3nrHR7m-438">
          <mxGeometry x="270" width="60" height="35" as="geometry">
            <mxRectangle width="60" height="35" as="alternateBounds" />
          </mxGeometry>
        </mxCell>
        <mxCell id="Pt9WqsQkKKoT_3nrHR7m-444" value="W4" style="shape=tableRow;horizontal=0;startSize=30;swimlaneHead=0;swimlaneBody=0;strokeColor=inherit;top=0;left=0;bottom=0;right=0;collapsible=0;dropTarget=0;fillColor=none;points=[[0,0.5],[1,0.5]];portConstraint=eastwest;" vertex="1" parent="Pt9WqsQkKKoT_3nrHR7m-419">
          <mxGeometry y="166" width="330" height="35" as="geometry" />
        </mxCell>
        <mxCell id="Pt9WqsQkKKoT_3nrHR7m-445" value="M4" style="shape=partialRectangle;html=1;whiteSpace=wrap;connectable=0;overflow=hidden;top=0;left=0;bottom=0;right=0;pointerEvents=1;fillColor=none;" vertex="1" parent="Pt9WqsQkKKoT_3nrHR7m-444">
          <mxGeometry x="30" width="60" height="35" as="geometry">
            <mxRectangle width="60" height="35" as="alternateBounds" />
          </mxGeometry>
        </mxCell>
        <mxCell id="Pt9WqsQkKKoT_3nrHR7m-446" value="M5" style="shape=partialRectangle;html=1;whiteSpace=wrap;connectable=0;overflow=hidden;top=0;left=0;bottom=0;right=0;pointerEvents=1;fillColor=none;" vertex="1" parent="Pt9WqsQkKKoT_3nrHR7m-444">
          <mxGeometry x="90" width="60" height="35" as="geometry">
            <mxRectangle width="60" height="35" as="alternateBounds" />
          </mxGeometry>
        </mxCell>
        <mxCell id="Pt9WqsQkKKoT_3nrHR7m-447" value="M3" style="shape=partialRectangle;html=1;whiteSpace=wrap;connectable=0;strokeColor=inherit;overflow=hidden;fillColor=none;top=0;left=0;bottom=0;right=0;pointerEvents=1;" vertex="1" parent="Pt9WqsQkKKoT_3nrHR7m-444">
          <mxGeometry x="150" width="60" height="35" as="geometry">
            <mxRectangle width="60" height="35" as="alternateBounds" />
          </mxGeometry>
        </mxCell>
        <mxCell id="Pt9WqsQkKKoT_3nrHR7m-448" value="M1" style="shape=partialRectangle;html=1;whiteSpace=wrap;connectable=0;strokeColor=inherit;overflow=hidden;fillColor=none;top=0;left=0;bottom=0;right=0;pointerEvents=1;" vertex="1" parent="Pt9WqsQkKKoT_3nrHR7m-444">
          <mxGeometry x="210" width="60" height="35" as="geometry">
            <mxRectangle width="60" height="35" as="alternateBounds" />
          </mxGeometry>
        </mxCell>
        <mxCell id="Pt9WqsQkKKoT_3nrHR7m-449" value="M2" style="shape=partialRectangle;html=1;whiteSpace=wrap;connectable=0;strokeColor=inherit;overflow=hidden;fillColor=none;top=0;left=0;bottom=0;right=0;pointerEvents=1;" vertex="1" parent="Pt9WqsQkKKoT_3nrHR7m-444">
          <mxGeometry x="270" width="60" height="35" as="geometry">
            <mxRectangle width="60" height="35" as="alternateBounds" />
          </mxGeometry>
        </mxCell>
        <mxCell id="Pt9WqsQkKKoT_3nrHR7m-450" value="W5" style="shape=tableRow;horizontal=0;startSize=30;swimlaneHead=0;swimlaneBody=0;strokeColor=inherit;top=0;left=0;bottom=0;right=0;collapsible=0;dropTarget=0;fillColor=none;points=[[0,0.5],[1,0.5]];portConstraint=eastwest;" vertex="1" parent="Pt9WqsQkKKoT_3nrHR7m-419">
          <mxGeometry y="201" width="330" height="35" as="geometry" />
        </mxCell>
        <mxCell id="Pt9WqsQkKKoT_3nrHR7m-451" value="M3" style="shape=partialRectangle;html=1;whiteSpace=wrap;connectable=0;overflow=hidden;top=0;left=0;bottom=0;right=0;pointerEvents=1;fillColor=none;" vertex="1" parent="Pt9WqsQkKKoT_3nrHR7m-450">
          <mxGeometry x="30" width="60" height="35" as="geometry">
            <mxRectangle width="60" height="35" as="alternateBounds" />
          </mxGeometry>
        </mxCell>
        <mxCell id="Pt9WqsQkKKoT_3nrHR7m-452" value="M5" style="shape=partialRectangle;html=1;whiteSpace=wrap;connectable=0;overflow=hidden;top=0;left=0;bottom=0;right=0;pointerEvents=1;fillColor=none;" vertex="1" parent="Pt9WqsQkKKoT_3nrHR7m-450">
          <mxGeometry x="90" width="60" height="35" as="geometry">
            <mxRectangle width="60" height="35" as="alternateBounds" />
          </mxGeometry>
        </mxCell>
        <mxCell id="Pt9WqsQkKKoT_3nrHR7m-453" value="M1" style="shape=partialRectangle;html=1;whiteSpace=wrap;connectable=0;strokeColor=inherit;overflow=hidden;fillColor=none;top=0;left=0;bottom=0;right=0;pointerEvents=1;" vertex="1" parent="Pt9WqsQkKKoT_3nrHR7m-450">
          <mxGeometry x="150" width="60" height="35" as="geometry">
            <mxRectangle width="60" height="35" as="alternateBounds" />
          </mxGeometry>
        </mxCell>
        <mxCell id="Pt9WqsQkKKoT_3nrHR7m-454" value="M2" style="shape=partialRectangle;html=1;whiteSpace=wrap;connectable=0;strokeColor=inherit;overflow=hidden;fillColor=none;top=0;left=0;bottom=0;right=0;pointerEvents=1;" vertex="1" parent="Pt9WqsQkKKoT_3nrHR7m-450">
          <mxGeometry x="210" width="60" height="35" as="geometry">
            <mxRectangle width="60" height="35" as="alternateBounds" />
          </mxGeometry>
        </mxCell>
        <mxCell id="Pt9WqsQkKKoT_3nrHR7m-455" value="M4" style="shape=partialRectangle;html=1;whiteSpace=wrap;connectable=0;strokeColor=inherit;overflow=hidden;fillColor=none;top=0;left=0;bottom=0;right=0;pointerEvents=1;" vertex="1" parent="Pt9WqsQkKKoT_3nrHR7m-450">
          <mxGeometry x="270" width="60" height="35" as="geometry">
            <mxRectangle width="60" height="35" as="alternateBounds" />
          </mxGeometry>
        </mxCell>
        <mxCell id="Pt9WqsQkKKoT_3nrHR7m-456" value="1" style="ellipse;whiteSpace=wrap;html=1;aspect=fixed;strokeColor=#314354;align=center;verticalAlign=middle;fontFamily=Helvetica;fontSize=12;fillColor=#000000;fontColor=#ffffff;" vertex="1" parent="1">
          <mxGeometry x="631" y="282" width="15" height="15" as="geometry" />
        </mxCell>
        <mxCell id="Pt9WqsQkKKoT_3nrHR7m-457" value="2" style="ellipse;whiteSpace=wrap;html=1;aspect=fixed;strokeColor=#314354;align=center;verticalAlign=middle;fontFamily=Helvetica;fontSize=12;fillColor=#000000;fontColor=#ffffff;" vertex="1" parent="1">
          <mxGeometry x="631" y="317.5" width="15" height="15" as="geometry" />
        </mxCell>
        <mxCell id="Pt9WqsQkKKoT_3nrHR7m-458" value="3" style="ellipse;whiteSpace=wrap;html=1;aspect=fixed;strokeColor=#314354;align=center;verticalAlign=middle;fontFamily=Helvetica;fontSize=12;fillColor=#000000;fontColor=#ffffff;" vertex="1" parent="1">
          <mxGeometry x="631" y="351.5" width="15" height="15" as="geometry" />
        </mxCell>
        <mxCell id="Pt9WqsQkKKoT_3nrHR7m-459" value="4" style="ellipse;whiteSpace=wrap;html=1;aspect=fixed;strokeColor=#314354;align=center;verticalAlign=middle;fontFamily=Helvetica;fontSize=12;fillColor=#000000;fontColor=#ffffff;" vertex="1" parent="1">
          <mxGeometry x="631" y="387" width="15" height="15" as="geometry" />
        </mxCell>
        <mxCell id="Pt9WqsQkKKoT_3nrHR7m-460" value="5" style="ellipse;whiteSpace=wrap;html=1;aspect=fixed;strokeColor=#314354;align=center;verticalAlign=middle;fontFamily=Helvetica;fontSize=12;fillColor=#000000;fontColor=#ffffff;" vertex="1" parent="1">
          <mxGeometry x="631" y="422" width="15" height="15" as="geometry" />
        </mxCell>
      </root>
    </mxGraphModel>
  </diagram>
</mxfile>
